<?xml version="1.0" encoding="utf-8"?>
<!-- Generator: Adobe Illustrator 24.3.0, SVG Export Plug-In . SVG Version: 6.00 Build 0)  -->
<svg version="1.1" id="Layer_1" xmlns="http://www.w3.org/2000/svg" xmlns:xlink="http://www.w3.org/1999/xlink" x="0px" y="0px"
	 viewBox="0 0 914.1 309.1" style="enable-background:new 0 0 914.1 309.1;" xml:space="preserve">
<style type="text/css">
	.st0{fill:#E1B956;}
	.st1{fill:#1C1C1C;}
</style>
<g>
	<g>
		<g>
			<path class="st0" d="M912.4,259c-1.3-3.6-2.5-5.5-3.9-5.5c-0.4,0-1,0.7-1.4,2.2c-2.9,8.8-4.3,13.6-4.3,14.4c0,0.6,0.6,1.5,2,2.8
				c1.3,1.3,2,2.1,2,2.5c-1.5,2.5-4.5,3.6-9.1,3.6c-3.8,0-7.1-1.3-10.1-3.8c-2.8-2.2-4.2-4.6-4.2-7.1c0,0.6,0.6-2.1,2-7.8
				c0.3-0.8,0.3-1.5,0.3-2.1c0-1.5-0.4-2.2-1.4-2.2c-0.8,0-1.8,0.7-3.1,2.1c-3.5,5.3-7,10.8-10.5,16.1c-5.5,7-12.5,10.6-21,10.6
				c-5.9,0-10.6-1.3-14.3-3.8c-3.9-2.5-5.9-6.2-5.9-10.9c0-2.1,0.4-4.3,1.3-6.9c0.8-2.5,0.3-3.6-1.5-3.6c-1.1,0-2.4,0.6-3.8,1.8
				c-10.5,10.6-17.4,17.1-20.3,19.2c-7.6,5.2-16.4,7.8-26.4,7.8c-5,0-8.8-0.7-11.1-2.2c-4.8-2.9-7.8-9.2-9.5-18.9
				c-0.4-2.5-1-15.1-1.6-37.7c16.9-15.8,31.9-23.7,45.1-23.7c8,0,14,3.6,17.9,10.6c0.8,1.5,1.4,2.2,1.7,2.2c0.3,0,0.8-0.7,1.5-2.2
				c1.8-4.2,2.7-9,2.7-14.4c0-4.5-1.8-8.4-5.7-11.6c-3.9-3.4-8.7-5-14.1-5c-14.9,0-31.5,8.1-49.6,24.4c0-0.2,0-0.4,0-0.7
				c-0.3-12.7-0.7-23.9-1.1-33.7c3.3-1.3,6.8-2.8,10.3-4.4c19.3-9.1,35.6-19.3,48.4-30.9c7.8-7.4,11.9-16.2,11.9-26.5
				c0-6.4-2-11.1-5.6-13.9c-3.6-2.8-11.5-5.6-23.2-8.1c-20.2-4.2-30.2-9.2-30.2-14.8c0-1.7,1.7-5.5,5.3-11.3
				c3.5-5.9,7.7-11.2,12.5-16.4c9.9-10.9,17.9-16.4,23.9-16.4c3.5,0,6.3,2.2,8,6.6c1,2.5,1.8,3.8,2.5,3.6c0.8,0.1,2-1.3,3.5-3.9
				c1.7-2.7,2.4-6.4,2.4-11.3c0-4.3-1.1-8-3.4-10.9c-2.2-3.1-5-4.5-8.5-4.5c-5,0-11.6,3.5-20,10.5c-8.3,7-15.5,16.1-22,27
				c-8.1,13.7-12,26.7-12,39.1c0,6.4,2.8,11.3,8.5,15c3.8,2.4,10.1,4.6,18.6,6.4c6.9,1.7,13.9,3.4,20.7,4.8c6.5,1.8,9.7,3.8,9.7,5.7
				c0,1.7-5.7,6-17.2,13.2c-12.9,8.1-26,15-39.6,20.6c-1.8,0.7-3.5,1.4-5.3,2c-0.5-9.8-1.1-17.4-1.7-22.7
				c-3.4-31.4-8.1-46.9-14.6-46.9c-3.1,0-6.3,3.8-9.4,11.2c-2.9,7.1-4.9,14.8-5.9,23.4c-0.1,2.2,0,3.4,0.7,3.4c0.5,0,1.3-1,2-2.8
				c4.1-10.9,7-16.4,8.8-16.4c1.3,0,2.7,3.2,4.3,9.5c2,7.6,3.6,17.6,4.9,30.5c0.3,3,0.7,7.7,1,14.1c-11,3.4-20.7,5.1-29.2,5.1
				c-15.5,0-26.9-5-34.3-14.8c-5.7-7.5-8.5-16.8-8.5-27.7c0-12.2,4.2-27.4,12.7-45.6c1.1-2.8,1.8-4.8,1.8-5.9c0-0.4-0.1-0.7-0.4-0.7
				c-0.8,0-2.4,1.8-4.5,5.2c-10.9,16.8-16.4,36.7-16.4,59.5c0,14.3,3.4,25.8,10.2,34.7c8,10.5,20.2,15.8,36.3,15.8
				c9.8,0,20.8-2.2,33.1-6.3c0.4,10.3,0.8,22.7,1.2,37.3c0,0.9,0.1,1.7,0.1,2.6c-1.8,1.8-3.5,3.7-5.3,5.6
				c-16.5,17.8-25.3,27.3-26.3,28.4c-9.9,9.1-18.5,13.7-26,13.7c-4.8,0-8.4-1.8-11.2-5.3c-2.5-3.2-3.8-7.4-3.8-12.9
				c0-7,2.4-16.7,6.9-28.7c4.5-12.2,6.7-19.3,6.7-21.3c0-0.5-0.1-0.8-0.4-0.8c-0.6,0-1.4,1-2.5,3.2c-10.4,20.3-15.5,36.7-15.5,49.4
				c0,9.1,2.7,16.8,8,23.2c5,6,10.9,9.1,17.6,9.1c8.1,0,16.7-4.6,25.8-14c9-9.8,18-19.6,26.9-29.4c0.9,21.9,1.9,35.5,2.8,41.1
				c2,11.6,6,19.7,11.8,23.9c4.1,3.1,9.9,4.6,17.2,4.6c9.5,0,18.7-3.8,27.4-11.2c2-1.7,6.4-6.6,13.3-14.6c1-1.3,2.1-1.8,3.2-1.8
				c0.6,0,1,0.3,1,1.1c0.3,6.6,1.5,11.5,3.6,14.8c3.5,5.3,9.7,8,18.6,8c11.9,0,21.4-6.6,28.7-19.7c5,8.8,10.4,13.2,16.1,13.2
				c8.1,0,14.3-3.6,18.5-10.9c3.4-5.9,5-13.2,5-21.7C914.1,264.6,913.5,262.2,912.4,259"/>
			<path class="st0" d="M707.7,55.9c1.8,1.8,3.4,2.7,4.5,2.7c1.1,0,1.7-0.3,1.8-0.7c0.3-0.5,0.7-0.7,1.5-0.7c1.1,0,2.9,3.2,5.5,9.7
				c2.7,6.6,3.9,10.9,3.9,13.2c0,1.4,0.3,2.2,0.8,2.2c0.6,0,1.4-0.8,2.2-2.4c1.3-2.4,2.4-6.3,3.4-11.9c2.4-12.9,4.9-19.3,7.6-19.3
				c1.3,0,2.5,0.7,3.6,2.1c1.1,1.4,2,2.2,2.2,2.2c0.8,0,1.5-1,2.2-2.9c0.4-1.4,0.7-2.5,0.7-3.5c0-1.1-0.7-2.7-2.1-4.5
				c-1.5-2.1-3.1-3.1-4.8-3.1c-3.1,0-5.9,3.1-8.4,9.2c-2.5,8.7-3.9,15.3-4.6,19.6c-0.3,0.8-0.4,1.3-0.4,1.4c-0.1,0.1-0.3,0.1-0.4,0
				c0.1-0.1,0-0.6-0.1-1.4c-1.3-7.3-3.4-13.2-6.4-17.8c-2.9-4.5-6.4-6.7-10.2-6.7c-0.4,0-1.4,1.3-3.1,3.9c-1.5,2.7-2.2,4.2-2.2,4.6
				C704.9,52.8,705.7,54.2,707.7,55.9"/>
			<path class="st0" d="M838.4,238.9c1.8,1.8,3.4,2.7,4.5,2.7c1.1,0,1.7-0.3,1.8-0.7c0.3-0.5,0.7-0.7,1.5-0.7c1.1,0,2.9,3.2,5.5,9.7
				c2.7,6.6,3.9,10.9,3.9,13.2c0,1.4,0.3,2.2,0.8,2.2c0.6,0,1.4-0.8,2.2-2.4c1.3-2.4,2.4-6.3,3.4-11.9c2.4-12.9,4.9-19.3,7.6-19.3
				c1.3,0,2.5,0.7,3.6,2.1c1.1,1.4,2,2.2,2.2,2.2c0.8,0,1.5-1,2.2-2.9c0.4-1.4,0.7-2.5,0.7-3.5c0-1.1-0.7-2.7-2.1-4.5
				c-1.5-2.1-3.1-3.1-4.8-3.1c-3.1,0-5.9,3.1-8.4,9.2c-2.5,8.7-3.9,15.3-4.6,19.6c-0.3,0.8-0.4,1.3-0.4,1.4c-0.1,0.1-0.3,0.1-0.4,0
				c0.1-0.1,0-0.6-0.1-1.4c-1.3-7.3-3.4-13.2-6.4-17.8c-2.9-4.5-6.4-6.7-10.2-6.7c-0.4,0-1.4,1.3-3.1,3.9c-1.5,2.7-2.2,4.2-2.2,4.6
				C835.6,235.8,836.4,237.2,838.4,238.9"/>
			<path class="st0" d="M699.5,130.5c4.2,0,7.1-5,9.1-15.1v-1c0-0.3-0.1-0.3-0.4-0.1c-0.1,0.3-0.4,0.6-0.6,0.8
				c-2.2,4.3-4.3,6.5-6,6.5c-3.1,0-4.6-3-4.6-8.5c0-4.1,1.7-11.3,5-21.7c0.8-2.2,1.1-3.6,1.1-4.2c-0.3,0-1.1,1.3-2.4,3.8
				c-5.3,10-7.8,19.5-7.8,28.6C692.9,126.7,695,130.5,699.5,130.5"/>
			<path class="st0" d="M787.7,221.9c-0.3,0-1.1,1.3-2.4,3.8c-5.3,9.9-7.8,19.5-7.8,28.6c0,7.3,2.1,11,6.6,11c4.2,0,7.1-5,9.1-15.1
				v-1c0-0.3-0.1-0.3-0.4-0.1c-0.1,0.3-0.4,0.6-0.6,0.8c-2.2,4.3-4.3,6.4-6,6.4c-3.1,0-4.6-2.9-4.6-8.5c0-4.1,1.7-11.3,5-21.7
				C787.4,223.9,787.7,222.5,787.7,221.9"/>
			<path class="st0" d="M807,46.8c1.5-1.9,2.2-3.1,2.3-3.7c-0.3-0.1-1.4,0.9-3.4,2.9c-8,7.9-13.3,16.2-16,24.9
				c-2.2,7-1.3,11.2,3,12.5c4,1.3,8.3-2.7,13.2-11.7c0.1-0.4,0.3-0.8,0.3-0.9c0.1-0.3-0.1-0.3-0.4-0.3c-0.2,0.2-0.6,0.4-0.8,0.6
				c-3.4,3.5-6.1,4.8-7.7,4.3c-2.9-0.9-3.5-4.2-1.9-9.5C796.9,62.1,800.7,55.7,807,46.8"/>
			<path class="st0" d="M700.5,209.5c2.6,0.7,5,0.3,7.4-1.1c2.4-1.3,3.9-3.2,4.6-5.9c0.7-2.6,0.3-5-1.1-7.4
				c-1.4-2.4-3.3-3.8-5.9-4.5c-2.6-0.7-4.9-0.4-7.2,1c-2.4,1.4-3.8,3.3-4.5,5.9c-0.7,2.7-0.5,5.1,1,7.4
				C696,207.3,697.9,208.8,700.5,209.5"/>
			<path class="st0" d="M722.4,215.3c2.6,0.7,5,0.3,7.3-1.1c2.4-1.3,3.9-3.2,4.6-5.9c0.7-2.6,0.3-5-1.1-7.4
				c-1.3-2.4-3.2-3.8-5.8-4.4c-2.6-0.7-4.9-0.4-7.4,0.9c-2.4,1.4-3.8,3.3-4.5,5.9c-0.7,2.7-0.5,5.1,0.9,7.4
				C717.9,213.1,719.8,214.6,722.4,215.3"/>
		</g>
		<g>
			<path class="st1" d="M32.9,118.8h7.2v25.4c0,1.1-0.5,1.7-1.5,1.7H18.9c-4.8,0-8.6-1.3-11.5-3.8c-3.6-3.2-5.4-7.2-5.4-12
				c0-4.1,0.9-7.7,2.5-10.6l6.5,3.3c-1.1,2.2-1.7,4.6-1.7,7.1c0,6.2,3.2,9.4,9.7,9.4h13.9V118.8z M16,114.9c-1.2,0-2.1-0.4-3-1.2
				c-0.8-0.8-1.3-1.8-1.3-2.9c0-1.2,0.4-2.2,1.3-3c0.8-0.8,1.8-1.2,3-1.2c1.1,0,2.1,0.4,2.9,1.2c0.8,0.8,1.2,1.8,1.2,3
				c0,1.1-0.4,2.1-1.2,2.9C18.2,114.5,17.2,114.9,16,114.9 M25.7,114.9c-1.1,0-2.1-0.4-3-1.2c-0.8-0.8-1.3-1.8-1.3-2.9
				c0-1.2,0.4-2.2,1.3-3c0.8-0.8,1.8-1.2,3-1.2s2.1,0.4,2.9,1.2c0.8,0.8,1.2,1.8,1.2,3c0,1.1-0.4,2.1-1.2,2.9
				C27.8,114.5,26.8,114.9,25.7,114.9 M52.7,146h-7.3v-41.7h7.3V146z M71.9,146.6c0,8.2-4.5,12.4-13.4,12.4h-3.8v-6.7h3.1
				c4.5,0,6.8-2.1,6.8-6.4v-27h7.3v20.4h4.6v6.7h-4.6V146.6z M103.7,146c-1.9,1.7-4.4,2.5-7.4,2.6c-5.3,0-9.3-2-12.1-5.9
				c-1.1,2.2-3.1,3.3-5.8,3.3h-3.8v-6.7h3.3c2.6,0,3.9-2.1,4-6.1v-1.1c0-4.8,1.1-8.6,3.3-11.3c2.2-2.7,5.5-4.1,9.8-4.1
				c4.2,0,7.5,1.4,10,4.2c2.4,2.8,3.7,6.8,3.7,12c0,2.3-0.3,4.4-0.8,6.3h5.3v6.7H103.7z M88.6,132.6c0,6.4,2.2,9.6,6.7,9.6
				c4.2,0,6.4-2.9,6.4-8.7c0-6.9-2.2-10.3-6.7-10.3C90.8,123.2,88.6,126.4,88.6,132.6 M112.1,146v-6.7h8.1c1,0,1.5-0.7,1.5-2v-18.4
				h7.3v17.6c-0.1,6.3-2.5,9.5-7.1,9.5H112.1z M116.5,114.9c-1.2,0-2.1-0.4-3-1.2c-0.8-0.8-1.3-1.8-1.3-2.9c0-1.2,0.4-2.2,1.3-3
				c0.8-0.8,1.8-1.2,3-1.2c1.1,0,2.1,0.4,2.9,1.2c0.8,0.8,1.2,1.8,1.2,3c0,1.1-0.4,2.1-1.2,2.9C118.6,114.5,117.6,114.9,116.5,114.9
				 M126.1,114.9c-1.1,0-2.1-0.4-3-1.2c-0.8-0.8-1.3-1.8-1.3-2.9c0-1.2,0.4-2.2,1.3-3c0.8-0.8,1.8-1.2,3-1.2c1.1,0,2.1,0.4,2.9,1.2
				c0.8,0.8,1.2,1.8,1.2,3c0,1.1-0.4,2.1-1.2,2.9C128.3,114.5,127.3,114.9,126.1,114.9 M160.7,146c-0.2,8.6-4.6,13-13.1,13h-4.5
				v-6.7h4.1c4.2,0,6.4-2.1,6.6-6.3c-6.4,0-10.7-0.9-13.1-2.7c-4.2-3-6.4-7.1-6.4-12.2c0-5.2,1.9-9.3,5.8-12.4
				c2.7-2.1,5.8-3.1,9.2-3.1c4.1,0,7.9,1.2,11.3,3.5v20.3h4.6v6.7H160.7z M143.6,113c-2.9,0.4-5.5,1.1-7.6,2l-0.5-2.8l1.7-0.8
				c-1.3-0.9-1.9-2.1-1.9-3.4c0-1.8,0.8-3.2,2.4-4.1c0.6-0.3,1.3-0.5,2.3-0.5c1,0,2,0.2,2.9,0.7l-0.5,2.7c-0.6-0.2-1.1-0.3-1.5-0.3
				c-1.4,0-2.1,0.6-2.1,1.9c0,1.2,1.1,1.9,3.1,2.1c0.6,0,1.2,0,1.8-0.1L143.6,113z M153.4,139.3V123c-1.3-0.9-2.8-1.3-4.3-1.3
				c-1.8,0-3.4,0.7-4.6,1.9c-1.8,2-2.7,4.3-2.7,7.1c0,5.7,3.3,8.6,9.9,8.7H153.4z M192.4,146c-1.9,1.7-4.4,2.5-7.4,2.6
				c-5.3,0-9.3-2-12.1-5.9c-1.2,2.2-3.1,3.3-5.8,3.3h-3.8v-6.7h3.3c2.6,0,3.9-2.1,4-6.1v-1.1c0-4.8,1.1-8.6,3.3-11.3
				c2.2-2.7,5.5-4.1,9.8-4.1c4.2,0,7.5,1.4,10,4.2c2.4,2.8,3.7,6.8,3.7,12c0,2.3-0.3,4.4-0.8,6.3h5.3v6.7H192.4z M177.3,132.6
				c0,6.4,2.2,9.6,6.7,9.6c4.2,0,6.4-2.9,6.4-8.7c0-6.9-2.2-10.3-6.7-10.3C179.5,123.2,177.3,126.4,177.3,132.6 M200.8,139.3h0.6
				c2.7,0,4-2,4-6v-29h7.3v28.4c0,3.5-0.8,6.4-2.3,8.8c-1.9,3-4.9,4.4-8.9,4.4h-0.7V139.3z M225.4,146h-7.3v-41.7h7.3V146z
				 M257.1,145.8c-0.2,8.7-4.5,13.1-13.1,13.2h-4.5v-6.7h4.1c4.2,0,6.4-2.1,6.6-6.3h-1.5c-5.4,0-9.3-0.9-11.6-2.7
				c-4.2-3-6.4-7.1-6.4-12.2c0-5.2,1.9-9.3,5.8-12.4c2.7-2.1,5.8-3.1,9.2-3.1c4.1,0,7.9,1.2,11.3,3.5V145.8z M249.8,139.3V123
				c-1.3-0.9-2.8-1.3-4.3-1.3c-1.9,0-3.4,0.7-4.6,1.9c-1.8,2-2.7,4.3-2.7,7.1c0,5.7,3.3,8.6,9.9,8.7H249.8z M305.7,146
				c-0.2,8.7-4.7,13-13.4,13h-3c-4.8,0-8.6-1.3-11.5-3.8c-3.6-3.2-5.4-7.2-5.4-12c0.1-6.3,2.1-11.4,6-15.1l5.6,4
				c-2.9,3.3-4.3,6.9-4.3,10.8c0,6.1,3.2,9.2,9.7,9.3h2.7c4.3,0,6.4-1.9,6.4-5.6v-27.8h7.3v5.4c2-2.8,4.4-5.1,7.2-6.7
				c2.3-1.4,4.8-2.1,7.4-2.1c4.8,0,8.7,2.1,11.8,6.1c2.4,3.5,3.6,7.1,3.6,10.8c0,2.1-0.2,4.3-0.7,6.8l-1.3,6.7H305.7z M308.3,113.5
				c-1.2,0-2.1-0.4-3-1.2c-0.8-0.8-1.3-1.8-1.3-2.9c0-1.2,0.4-2.2,1.3-3c0.8-0.8,1.8-1.2,3-1.2c1.1,0,2.1,0.4,2.9,1.2
				c0.8,0.8,1.2,1.8,1.2,3c0,1.1-0.4,2.1-1.2,2.9C310.4,113.1,309.4,113.5,308.3,113.5 M327.4,139.3c0.7-2.2,1.1-4.3,1.1-6.2
				c0-2.5-0.5-4.6-1.5-6.4c-1.5-2.9-3.8-4.4-6.8-4.5c-2.9,0-5.8,1.3-8.6,4c-2,1.9-3.8,4.4-5.4,7.5c-0.5,1-0.7,1.7-0.7,2v3.6H327.4z
				 M355,146.6c0,8.2-4.5,12.4-13.4,12.4h-3.8v-6.7h3.1c4.5,0,6.8-2.1,6.8-6.4v-27h7.3V146.6z M373.6,146h-5.9
				c-4.6,0-6.9-3.2-7.1-9.5v-32.1h7.3v33c0,1.3,0.5,2,1.5,2h4.2V146z M410.7,146h-37.1v-6.7h9.6l-7.8-8.3l0.5-1.5
				c2.1-6.3,5.5-10.6,10.1-12.8c1.9-0.8,3.7-1.3,5.6-1.3c1.4,0,2.9,0.2,4.3,0.7c4,1.3,6.9,3.7,8.6,7.4c1,2.1,1.5,4.2,1.5,6.4
				c0,3.4-1.1,6.5-3.4,9.3h8V146z M391.2,139.2c1.9-0.2,3.6-1.1,5-2.6c2-2,3-4.4,3-7c0-4.1-1.7-6.7-5.1-7.9
				c-0.8-0.3-1.6-0.4-2.3-0.4c-0.9,0-1.8,0.2-2.7,0.6c-2.6,1.2-4.6,3.9-6.1,7.9L391.2,139.2z M437.8,146c-1.9,1.7-4.4,2.5-7.4,2.6
				c-5.3,0-9.3-2-12-5.9c-1.2,2.2-3.1,3.3-5.8,3.3h-3.8v-6.7h3.3c2.6,0,3.9-2.1,4-6.1v-1.1c0-4.8,1.1-8.6,3.3-11.3
				c2.2-2.7,5.5-4.1,9.8-4.1c4.2,0,7.5,1.4,10,4.2c2.5,2.8,3.7,6.8,3.7,12c0,2.3-0.3,4.4-0.8,6.3h5.3v6.7H437.8z M422.7,132.6
				c0,6.4,2.2,9.6,6.7,9.6c4.2,0,6.4-2.9,6.4-8.7c0-6.9-2.2-10.3-6.7-10.3C424.9,123.2,422.7,126.4,422.7,132.6 M461.6,146h-15.4
				v-6.7h3.6v-35h7.3v35h4.5V146z M460.6,139.3h0.6c2.7,0,4.1-2,4.1-6v-29h7.3v28.4c0,3.5-0.8,6.4-2.3,8.8c-1.9,3-4.9,4.4-8.9,4.4
				h-0.7V139.3z M504.8,152.3c-4.8,0-8.6-1.3-11.5-3.8c-3.6-3.2-5.4-7.2-5.4-12c0.1-6.3,2.1-11.4,6-15.1l5.6,4
				c-2.9,3.3-4.3,6.9-4.3,10.8c0,6.1,3.2,9.2,9.7,9.3h7.5v-25.9c3.2-0.9,6.8-1.4,10.9-1.4c8,0.1,12,4.6,12,13.4l0.1,7.7H528v-7.5
				c0-5.1-1.6-7.6-4.8-7.6c-1.4,0-2.6,0.2-3.5,0.7l-0.1,25.6c0,1.2-0.5,1.7-1.5,1.7L504.8,152.3z M502,164.4c-1.2,0-2.1-0.4-3-1.2
				c-0.8-0.8-1.3-1.8-1.3-2.9c0-1.2,0.4-2.2,1.3-3c0.8-0.8,1.8-1.2,3-1.2c1.1,0,2.1,0.4,2.9,1.2c0.8,0.8,1.2,1.8,1.2,3
				c0,1.1-0.4,2.1-1.2,2.9C504.1,164,503.1,164.4,502,164.4 M511.6,164.4c-1.1,0-2.1-0.4-3-1.2c-0.8-0.8-1.3-1.8-1.3-2.9
				c0-1.2,0.4-2.2,1.3-3c0.8-0.8,1.8-1.2,3-1.2c1.1,0,2.1,0.4,2.9,1.2c0.8,0.8,1.2,1.8,1.2,3c0,1.1-0.4,2.1-1.2,2.9
				C513.8,164,512.8,164.4,511.6,164.4 M554.5,146.6c0,8.2-4.5,12.4-13.4,12.4h-3.8v-6.7h3.1c4.6,0,6.8-2.1,6.8-6.4v-27h7.3V146.6z
				 M573.1,146h-5.9c-4.6,0-7-3.2-7.1-9.5v-32.1h7.3v33c0,1.3,0.5,2,1.5,2h4.2V146z M581.2,139.3v-15.8h7.3v15.8h3.8
				c1.7,0,2.9-0.2,3.5-0.5c1.3-0.7,1.9-2.7,1.9-5.8v-12h7.3V133c0,4.2,1.5,6.3,4.6,6.3c3.1,0,4.7-2.2,4.7-6.7v-13.8h7.3v13.4
				c-0.1,4.5-0.8,7.9-2.4,10.1c-1.8,2.7-4.3,4-7.4,4c-3.9,0-6.9-1.2-8.9-3.6c-2,2.1-4.7,3.2-8.1,3.2h-21.7v-6.7H581.2z"/>
			<path class="st1" d="M1.2,211.7c2.2,1.3,5.4,2.4,8.7,2.4c5,0,7.9-2.6,7.9-6.4c0-3.5-2-5.5-7.1-7.5c-6.2-2.2-10-5.4-10-10.7
				c0-5.9,4.9-10.2,12.2-10.2c3.9,0,6.7,0.9,8.3,1.8l-1.3,4c-1.2-0.7-3.8-1.8-7.2-1.8c-5.2,0-7.1,3.1-7.1,5.6c0,3.5,2.3,5.2,7.5,7.3
				c6.4,2.5,9.6,5.5,9.6,11.1c0,5.8-4.3,10.8-13.2,10.8c-3.6,0-7.6-1.1-9.6-2.4L1.2,211.7z"/>
			<path class="st1" d="M35.6,205.8l-3.9,11.8h-5L39.5,180h5.9l12.9,37.6H53l-4-11.8H35.6z M48,202l-3.7-10.8
				c-0.8-2.5-1.4-4.7-2-6.9h-0.1c-0.6,2.2-1.2,4.5-1.9,6.8L36.6,202H48z"/>
			<path class="st1" d="M63.8,180.5c2.5-0.5,6-0.8,9.4-0.8c5.2,0,8.6,1,10.9,3.1c1.9,1.7,3,4.2,3,7.2c0,5-3.1,8.3-7.1,9.6v0.2
				c2.9,1,4.6,3.7,5.5,7.6c1.2,5.2,2.1,8.9,2.9,10.3h-5c-0.6-1.1-1.5-4.3-2.5-9c-1.1-5.2-3.1-7.2-7.6-7.3h-4.6v16.3h-4.9V180.5z
				 M68.6,197.6h5c5.2,0,8.5-2.8,8.5-7.2c0-4.9-3.5-7-8.7-7c-2.3,0-4,0.2-4.8,0.4V197.6z"/>
			<path class="st1" d="M101.7,217.6v-16L89.8,180h5.5l5.3,10.4c1.5,2.8,2.6,5.1,3.8,7.8h0.1c1.1-2.5,2.4-4.9,3.8-7.8l5.4-10.4h5.5
				l-12.6,21.6v16H101.7z"/>
			<polygon class="st1" points="151.5,200 136.8,200 136.8,213.5 153.2,213.5 153.2,217.6 132,217.6 132,180 152.3,180 152.3,184 
				136.8,184 136.8,195.9 151.5,195.9 			"/>
			<path class="st1" d="M168.3,217.6L156,180h5.3l5.9,18.5c1.6,5.1,3,9.7,4,14.1h0.1c1.1-4.4,2.6-9.1,4.3-14L182,180h5.2l-13.5,37.6
				H168.3z"/>
			<polygon class="st1" points="210.8,200 196.2,200 196.2,213.5 212.5,213.5 212.5,217.6 191.3,217.6 191.3,180 211.7,180 
				211.7,184 196.2,184 196.2,195.9 210.8,195.9 			"/>
			<path class="st1" d="M218.8,217.6V180h5.3l12.1,19c2.8,4.4,5,8.4,6.8,12.2l0.1-0.1c-0.4-5-0.6-9.6-0.6-15.5V180h4.6v37.6h-4.9
				l-12-19.1c-2.6-4.2-5.2-8.5-7.1-12.6L223,186c0.3,4.8,0.4,9.3,0.4,15.5v16.1H218.8z"/>
			<polygon class="st1" points="262.8,184.1 251.4,184.1 251.4,180 279.3,180 279.3,184.1 267.8,184.1 267.8,217.6 262.8,217.6 			
				"/>
			<path class="st1" d="M282.6,211.7c2.2,1.3,5.4,2.4,8.7,2.4c5,0,7.9-2.6,7.9-6.4c0-3.5-2-5.5-7.1-7.5c-6.2-2.2-10-5.4-10-10.7
				c0-5.9,4.9-10.2,12.2-10.2c3.9,0,6.7,0.9,8.3,1.8l-1.3,4c-1.2-0.7-3.8-1.8-7.2-1.8c-5.2,0-7.1,3.1-7.1,5.6c0,3.5,2.3,5.2,7.5,7.3
				c6.4,2.5,9.6,5.5,9.6,11.1c0,5.8-4.3,10.8-13.2,10.8c-3.6,0-7.6-1.1-9.6-2.4L282.6,211.7z"/>
			<path class="st1" d="M336.4,214.2c-2.7,2.3-5.7,3.7-9.1,3.7c-7.2,0-10.5-4.3-10.5-9.4c0-4.5,1.9-7.7,6.8-10.9
				c-1.6-1.9-3.7-4.6-3.7-7.8c0-4.9,3.3-8.8,9.8-8.8c2.9,0,6.2,1.1,9.1,3.7l-3.4,3.9c-2.8-2.1-4.2-2.5-6.3-2.5
				c-2.7,0-3.8,1.6-3.8,3.6c0,1.3,0.6,2.2,1.6,3.7c3.4,4.5,6.6,8.6,9.5,12.4c1-1.7,1.5-3.5,2-5.5l5.2,0.8c-0.7,3.3-1.8,6.5-3.6,9.2
				c1.7,2.3,4,5.3,5.8,7.3h-6.6L336.4,214.2z M330.5,206.6l-3.9-5c-2.7,2-4.4,4.1-4.4,6.8c0,2.5,1.7,4.4,5.1,4.4
				c2.2,0,4.4-1.3,5.8-2.6L330.5,206.6z"/>
			<polygon class="st1" points="380,200 365.3,200 365.3,213.5 381.7,213.5 381.7,217.6 360.5,217.6 360.5,180 380.8,180 380.8,184 
				365.3,184 365.3,195.9 380,195.9 			"/>
			<path class="st1" d="M408.7,217.6l-4.8-8.3c-2-3.2-3.2-5.2-4.4-7.4h-0.1c-1.1,2.2-2.1,4.2-4.1,7.5l-4.5,8.3h-5.6l11.5-19
				L385.6,180h5.6l5,8.8c1.4,2.5,2.5,4.4,3.5,6.4h0.2c1.1-2.2,2-4,3.4-6.4l5.1-8.8h5.6l-11.5,18.3l11.8,19.3H408.7z"/>
			<polygon class="st1" points="424.9,180 424.9,195.7 443.1,195.7 443.1,180 448,180 448,217.6 443.1,217.6 443.1,200 424.9,200 
				424.9,217.6 420,217.6 420,180 			"/>
			<rect x="456.5" y="180" class="st1" width="4.9" height="37.6"/>
			<path class="st1" d="M469.9,180.5c2.1-0.4,5.5-0.8,8.9-0.8c4.9,0,8,0.8,10.3,2.7c2,1.5,3.1,3.7,3.1,6.6c0,3.6-2.4,6.8-6.4,8.3
				v0.1c3.6,0.9,7.8,3.8,7.8,9.4c0,3.2-1.3,5.7-3.2,7.5c-2.6,2.4-6.9,3.5-13,3.5c-3.4,0-5.9-0.2-7.6-0.4V180.5z M474.7,195.9h4.4
				c5.1,0,8.2-2.7,8.2-6.3c0-4.4-3.4-6.1-8.3-6.1c-2.2,0-3.5,0.2-4.3,0.3V195.9z M474.7,213.9c1,0.2,2.4,0.2,4.1,0.2
				c5,0,9.7-1.8,9.7-7.3c0-5.1-4.4-7.3-9.7-7.3h-4V213.9z"/>
			<rect x="500.2" y="180" class="st1" width="4.9" height="37.6"/>
			<polygon class="st1" points="520.8,184.1 509.3,184.1 509.3,180 537.2,180 537.2,184.1 525.7,184.1 525.7,217.6 520.8,217.6 			
				"/>
			<rect x="541.4" y="180" class="st1" width="4.9" height="37.6"/>
			<path class="st1" d="M587.1,198.4c0,13-7.9,19.8-17.5,19.8c-10,0-17-7.7-17-19.1c0-12,7.4-19.8,17.5-19.8
				C580.4,179.4,587.1,187.2,587.1,198.4 M557.8,199c0,8,4.4,15.3,12,15.3c7.7,0,12.1-7.1,12.1-15.6c0-7.5-3.9-15.3-12-15.3
				C561.8,183.3,557.8,190.7,557.8,199"/>
			<path class="st1" d="M593.4,217.6V180h5.3l12.1,19c2.8,4.4,5,8.4,6.8,12.2l0.1-0.1c-0.4-5-0.6-9.6-0.6-15.5V180h4.6v37.6h-4.9
				l-12-19.1c-2.6-4.2-5.2-8.5-7.1-12.6l-0.2,0.1c0.3,4.8,0.4,9.3,0.4,15.5v16.1H593.4z"/>
		</g>
	</g>
	<g>
		<path class="st1" d="M105.9,0.4c5.1,0,8.9,1.5,11.4,4.5c2.5,3,3.7,7.6,3.7,13.8c0,3.4-0.4,6.7-1.2,9.9c-0.8,3.2-1.9,5.9-3.4,7.9
			c-3.7,1.9-7.5,2.9-11.4,2.9c-5.1,0-8.9-1.5-11.4-4.5c-2.5-3-3.7-7.6-3.7-13.8c0-3.4,0.4-6.7,1.2-9.9C92,8,93.1,5.4,94.5,3.3
			C98.3,1.4,102.1,0.4,105.9,0.4z M112.8,33c1.7-3.8,2.6-8.4,2.6-13.8c0-4.8-0.8-8.3-2.4-10.4c-1.6-2.2-4.1-3.2-7.6-3.2
			c-2.6,0-5,0.5-7.3,1.4c-1.7,3.8-2.6,8.4-2.6,13.8c0,4.8,0.8,8.3,2.3,10.4c1.6,2.2,4.1,3.2,7.6,3.2C108.1,34.4,110.5,33.9,112.8,33
			z"/>
		<path class="st1" d="M141.6,11.5v5.1c-3.2,0-6.1,0.8-8.7,2.3v19.7h-5.3V12.3h4.6l0.5,2.1C135.7,12.5,138.7,11.5,141.6,11.5z"/>
		<path class="st1" d="M167.8,12.7v28.3c0,4-0.9,7-2.8,8.9c-1.9,1.9-4.8,2.9-8.7,2.9c-3.7,0-7.3-0.6-10.6-1.7v-4.5l0.4-0.2
			c3.3,1.2,6.5,1.8,9.7,1.8c2.3,0,4-0.6,5.2-1.8c1.1-1.2,1.7-3.1,1.7-5.7v-3.1c-2.1,1.4-4.3,2-6.8,2c-3.7,0-6.5-1.1-8.4-3.3
			c-1.9-2.2-2.9-5.4-2.9-9.6c0-5.2,1-9.5,3.2-13c2.6-1.4,5.4-2,8.5-2c2.7,0,5.2,0.4,7.3,1.3l3.8-0.7L167.8,12.7z M156.6,34.9
			c2,0,4-0.6,6-1.9V17.2c-1.8-0.7-3.9-1.1-6.3-1.1c-1.9,0-3.6,0.3-5.1,0.9c-1.1,2.7-1.6,5.7-1.6,9C149.6,32,152,34.9,156.6,34.9z"/>
		<path class="st1" d="M194.6,21.2v10.6c0,2.3,0.4,4.4,1.3,6.4l-0.2,0.5h-5.1c-0.2-0.5-0.5-1.1-0.6-1.8c-2.4,1.7-5,2.6-7.9,2.6
			c-2.9,0-5.1-0.7-6.7-2.1c-1.6-1.4-2.4-3.3-2.4-5.8c0-2.1,0.5-4.1,1.5-6c3.8-1,8.8-1.6,15-1.7V22c0-2-0.5-3.5-1.4-4.4
			c-0.9-0.9-2.3-1.3-4.2-1.3c-2.5,0-5.5,0.5-8.9,1.5l-0.4-0.2v-4.5c3.6-1,7-1.5,10.1-1.5c3.5,0,6,0.7,7.5,2.2
			C193.8,15.2,194.6,17.7,194.6,21.2z M183.1,35.4c2,0,4.1-0.6,6.4-1.9v-6.2c-4.5,0.2-8.1,0.5-10.9,1c-0.4,0.9-0.6,1.8-0.6,2.7
			C178,33.9,179.7,35.4,183.1,35.4z"/>
		<path class="st1" d="M216.4,11.5c6,0,9,2.8,9,8.5v18.6h-5.3V21.1c0-3.1-1.7-4.6-5.1-4.6c-2.5,0-4.8,0.9-7,2.6v19.6h-5.3V12.3h4.6
			l0.5,2C210.7,12.5,213.6,11.5,216.4,11.5z"/>
		<path class="st1" d="M236.5,8.2l-4.1-4.1l4.1-4.1l4.1,4.1L236.5,8.2z M239.2,12.3v26.4h-5.3V12.3H239.2z"/>
		<path class="st1" d="M266.2,33.8v4.9H245l-0.6-4.6l15-16.8h-13.8v-4.9h19.7l0.6,4.6l-15,16.9H266.2z"/>
		<path class="st1" d="M274.1,8.2L270,4.1l4.1-4.1l4.1,4.1L274.1,8.2z M276.7,12.3v26.4h-5.3V12.3H276.7z"/>
		<path class="st1" d="M299.1,11.5c6,0,9,2.8,9,8.5v18.6h-5.3V21.1c0-3.1-1.7-4.6-5.1-4.6c-2.5,0-4.8,0.9-7,2.6v19.6h-5.3V12.3h4.6
			l0.5,2C293.3,12.5,296.2,11.5,299.1,11.5z"/>
		<path class="st1" d="M337.7,12.7v28.3c0,4-0.9,7-2.8,8.9c-1.9,1.9-4.8,2.9-8.7,2.9c-3.7,0-7.3-0.6-10.6-1.7v-4.5l0.4-0.2
			c3.3,1.2,6.5,1.8,9.7,1.8c2.3,0,4-0.6,5.2-1.8c1.1-1.2,1.7-3.1,1.7-5.7v-3.1c-2.1,1.4-4.3,2-6.8,2c-3.7,0-6.5-1.1-8.4-3.3
			c-1.9-2.2-2.9-5.4-2.9-9.6c0-5.2,1-9.5,3.2-13c2.6-1.4,5.4-2,8.5-2c2.7,0,5.2,0.4,7.3,1.3l3.8-0.7L337.7,12.7z M326.6,34.9
			c2,0,4-0.6,6-1.9V17.2c-1.8-0.7-3.9-1.1-6.3-1.1c-1.9,0-3.6,0.3-5.1,0.9c-1.1,2.7-1.6,5.7-1.6,9C319.6,32,321.9,34.9,326.6,34.9z"
			/>
		<path class="st1" d="M357.3,1.3h13.4c4,0,6.8,0.9,8.7,2.6c1.8,1.7,2.8,4.1,2.8,7.2c0,3.3-0.7,6.7-2,10c-2.6,2-7.1,3-13.4,3h-4
			v14.6h-5.4V1.3z M362.7,19.4h4.7c3.7,0,6.5-0.4,8.3-1.1c0.6-2.1,1-4,1-5.9c0-2-0.6-3.5-1.7-4.7c-1.1-1.2-2.8-1.8-5.2-1.8h-7.1
			V19.4z"/>
		<path class="st1" d="M407.4,21.2v10.6c0,2.3,0.4,4.4,1.3,6.4l-0.2,0.5h-5.1c-0.2-0.5-0.5-1.1-0.6-1.8c-2.4,1.7-5,2.6-7.9,2.6
			c-2.9,0-5.1-0.7-6.7-2.1c-1.6-1.4-2.4-3.3-2.4-5.8c0-2.1,0.5-4.1,1.5-6c3.8-1,8.8-1.6,15-1.7V22c0-2-0.5-3.5-1.4-4.4
			c-0.9-0.9-2.3-1.3-4.2-1.3c-2.5,0-5.5,0.5-8.9,1.5l-0.4-0.2v-4.5c3.6-1,7-1.5,10.1-1.5c3.5,0,6,0.7,7.5,2.2
			C406.6,15.2,407.4,17.7,407.4,21.2z M395.9,35.4c2,0,4.1-0.6,6.4-1.9v-6.2c-4.5,0.2-8.1,0.5-10.9,1c-0.4,0.9-0.6,1.8-0.6,2.7
			C390.8,33.9,392.5,35.4,395.9,35.4z"/>
		<path class="st1" d="M429.5,11.5v5.1c-3.2,0-6.1,0.8-8.7,2.3v19.7h-5.3V12.3h4.6l0.5,2.1C423.6,12.5,426.6,11.5,429.5,11.5z"/>
		<path class="st1" d="M448.9,32.7l1.4,4.3c-2.3,1.6-4.8,2.4-7.5,2.4c-4.8,0-7.3-2.7-7.3-8.1V17h-4.1v-4.7h4.1V5.6h5.3v6.7h8.6V17
			h-8.6v13.6c0,2.5,1,3.7,2.9,3.7C445.3,34.3,447,33.8,448.9,32.7z"/>
		<path class="st1" d="M469.2,11.5c6,0,9,2.8,9,8.5v18.6h-5.3V21.1c0-3.1-1.7-4.6-5.1-4.6c-2.5,0-4.8,0.9-7,2.6v19.6h-5.3V12.3h4.6
			l0.5,2C463.4,12.5,466.3,11.5,469.2,11.5z"/>
		<path class="st1" d="M507,22.4c0,1.4-0.1,2.8-0.4,4.3h-16.9c0.1,2.8,0.8,4.8,2,6.1c1.2,1.3,3,1.9,5.6,1.9c2.9,0,5.8-0.5,8.7-1.6
			l0.4,0.2v4.4c-2.9,1.2-6.1,1.8-9.6,1.8c-4.2,0-7.3-1.1-9.3-3.3c-2-2.2-3-5.5-3-10c0-4.8,1.1-9.1,3.2-12.7c3-1.4,5.9-2,8.9-2
			C503.5,11.5,507,15.2,507,22.4z M501.9,23v-0.6c0-2.2-0.4-3.8-1.3-4.8c-0.9-1-2.2-1.4-4-1.4c-2,0-3.8,0.3-5.3,1
			c-0.8,1.7-1.3,3.7-1.5,5.9H501.9z"/>
		<path class="st1" d="M528.1,11.5v5.1c-3.2,0-6.1,0.8-8.7,2.3v19.7h-5.3V12.3h4.6l0.5,2.1C522.2,12.5,525.2,11.5,528.1,11.5z"/>
	</g>
</g>
</svg>
