<?xml version="1.0" encoding="utf-8"?>
<!-- Generator: Adobe Illustrator 24.3.0, SVG Export Plug-In . SVG Version: 6.00 Build 0)  -->
<svg version="1.1" id="Layer_1" xmlns="http://www.w3.org/2000/svg" xmlns:xlink="http://www.w3.org/1999/xlink" x="0px" y="0px"
	 viewBox="0 0 968 427.3" style="enable-background:new 0 0 968 427.3;" xml:space="preserve">
<style type="text/css">
	.st0{fill:#10B7D4;}
	.st1{fill:#00B4E2;}
	.st2{fill:#49BABE;}
	.st3{fill:#61B8A0;}
	.st4{fill:#1DAEE5;}
	.st5{fill:#1C1C1C;}
</style>
<g>
	<g>
		<path class="st0" d="M171.8,11.1c1.8-3.2,16.6-10.5,20.4-11.1c0.3-0.1,0.7,0.2,0.6,0.6c-0.1,3.2,0.4,8-2.5,10.3
			c-8.5,6.5-16.4,13.6-23.9,21.2c-1.1,1.2-2.4,1.8-3.8,1.9c-0.6,0.1-1-0.5-0.8-1.1C164.6,25.4,167.9,18.2,171.8,11.1z"/>
		<path class="st1" d="M227.2,18.8c-14.3,5.9-24.6,11.3-36.5,18c-0.9,0.5-2.1,0.9-3.4,1.2c-0.6,0.1-1.1-0.4-1-1
			c0.2-1,0.7-1.9,1.6-2.8c9.2-9.4,17.1-16.6,23.8-21.8c1.4-1.1,3.7-2.1,7-3c5.8-1.7,11.6-3.3,17.5-4.8c2.2-0.6,3.8-1.4,6.2-0.9
			c0.6,0.1,0.8,0.8,0.4,1.3C238,10.1,233.7,16.1,227.2,18.8z"/>
		<path class="st2" d="M141.1,32.7c-0.7,1.5-2.2,4.8-4.2,4.7c-0.6-0.1-1.1-0.5-1.2-1.1c-0.6-5.2-1-10.4-1.3-15.6
			c-0.2-3.9,7.6-9.1,10.5-11.1c2.9-2.1,5.6,1.1,7.1,3.2c0.6,0.9,0.5,2-0.1,2.8C147.5,20.7,143.9,26.5,141.1,32.7z"/>
		<path class="st1" d="M269.7,34.2c-6.4,3.6-11.4,5.1-19.2,5.9c-13.9,1.6-28,5.4-41.3,9.5c-0.8,0.2-1.8,0.2-3.3-0.1
			c-0.4-0.1-0.5-0.3-0.4-0.7c0.2-0.9,0.6-1.5,1.3-2c12.3-7.1,25.5-13.7,39.5-19.8c2.3-1,4.4-1.5,6.5-1.7c10.2-0.7,20.4-1.2,30.6-1.7
			c1.2-0.1,2.4,0.2,3.4,0.8c0.5,0.3,0.6,1,0.2,1.4c-1.7,1.5-3.6,2.6-5.7,3.4C276.7,30.8,272.8,32.5,269.7,34.2z"/>
		<path class="st3" d="M100.9,33.1c3.6-5.5,7.3-11,14.8-7.5c0.6,0.3,0.8,0.7,0.6,1.3c-1.4,5.9-2.1,11.8-2,17.9
			c0,0.6-0.3,1.2-0.7,1.6c-1.4,1.2-2.7,1-3.9-0.4c-3.1-3.5-6-7.1-8.8-10.6C100.5,34.8,100.4,33.8,100.9,33.1z"/>
		<path class="st3" d="M84.1,45.6L91.5,60c0.2,0.4,0.2,0.9-0.1,1.2c-1.3,1.5-3,1.6-5,1C81,60.5,75.6,59,70.1,57.7
			c-0.4-0.1-0.6-0.5-0.5-0.9c0.8-3.8,2.2-9.8,6.7-10.6c2.4-0.4,4.8-0.7,7.2-0.9C83.8,45.3,84,45.4,84.1,45.6z"/>
		<path class="st4" d="M311,60.6c1.1,0.3,1.9,0.8,2.5,1.5c0.4,0.5,0.2,1.2-0.3,1.4c-7.1,3-15.1,2.9-22.2,4.4c-5,1.1-10.7,3-15.8,2.6
			c-18.7-1.6-37.5-2-56.3-1.2c-0.9,0-1.6-0.2-2-0.8c-0.6-0.8-0.2-2,0.7-2.3c17.7-6,36.9-9.8,55.4-12.7c1.6-0.3,3.9-0.1,6.8,0.4
			C290.2,55.7,300.6,58,311,60.6z"/>
		<path class="st3" d="M56.9,72.9c5,2.8,10.5,4.6,15.7,6.9c0.9,0.4,1.1,1,0.4,1.7c-0.9,1-2.1,1.6-3.7,1.8
			c-8.8,1.1-17.6,2.9-26.2,5.1c-0.4,0.1-0.7-0.1-0.9-0.4c-1.8-2.9-5.1-6.9-0.5-9.4c4-2.2,8-4.2,12-5.9
			C54.7,72.3,55.9,72.3,56.9,72.9z"/>
		<path class="st4" d="M287.2,95.1c8.4,4.3,16.8,8.8,25,13.4c1.2,0.7,1.9,1.5,2.3,2.6c0.3,0.9-0.4,1.8-1.3,1.8
			c-12.2-0.3-24.3-0.8-36.5-1.4c-2.3-0.1-3.8-0.6-5.9-1.4c-16.9-6.4-34-11.7-51.6-16c-1.2-0.3-2.1-0.8-2.5-1.6
			c-0.5-1,0.1-2.1,1.1-2.3c2.2-0.4,4.5-0.5,6.7-0.6c17.2-0.3,34.4,0.2,51.6,1.6C280.7,91.5,283.3,93.1,287.2,95.1z"/>
		<path class="st3" d="M48.3,112.1c-6.6,3.3-14.1,7.7-22.6,13.2c-2.9,1.9-9.8,0.8-13.1,0.7c-0.5,0-0.7-0.5-0.6-0.9
			c0.8-1.8,1.8-3.2,3.1-4.4c2.8-2.4,7.2-6.1,13.2-11.1c2-1.7,3.6-2.5,6.4-3c8.4-1.5,16.8-2.7,25.2-3.4c1-0.1,1.6,1.1,1,1.8
			C58.7,107.6,51.6,110.5,48.3,112.1z"/>
		<path class="st4" d="M262.4,132c2.5,0.9,4.8,2.5,7,4.8c6.8,7.2,13.6,14.6,20.4,22.3c0.4,0.4,0.6,1,0.6,1.6c-0.1,1.7-1,2.4-2.9,1.8
			c-11.4-3.1-22.8-6.6-34-10.3c-1.3-0.4-2.5-0.9-3.6-1.8c-13.8-11-28-21.3-42.8-30.9c-0.8-0.5-1.2-1.1-1.3-1.9
			c-0.1-1,0.8-1.9,1.8-1.8c8.5,1.1,17.1,3.7,25.3,6.2C244.7,125.8,254.6,129.1,262.4,132z"/>
		<path class="st3" d="M33.4,138.4c7.6-4,15.2-8.1,23.1-11.5c0.5-0.2,1.1,0.1,1.1,0.7c0.1,1.1-0.2,1.9-0.9,2.5
			c-15.2,13.4-23,20.6-35.7,34.2c-1,1.1-1.9,1.6-3.2,2.2c-5.6,2.9-11,5.8-16.3,9c-1.3,0.8-1.7,0.4-1.4-1c0.4-1.4,1.1-2.9,2.2-4.5
			c5.1-7.5,10.5-14.8,16.1-21.9C21.4,144.4,29.1,140.6,33.4,138.4z"/>
		<path class="st4" d="M249.3,199.8c0.7,1.5,1.2,3,1.6,4.7c0.2,1.1-0.8,2.1-1.9,1.9c-0.7-0.1-1.4-0.4-2.1-0.9
			c-12.7-7.8-22.1-13.6-28.2-17.5c-0.8-0.5-1.6-1.4-2.4-2.6c-9.5-14.2-19.3-28.2-29.4-42.1c-1.1-1.4-1-2.6,0.1-3.5
			c0.6-0.5,1.5-0.6,2.2-0.2c5.2,2.7,10.2,5.7,15,9c15.1,10.4,25,17.5,29.9,21.5c2,1.6,3.8,6,5.1,8.6
			C242.5,185.7,245.9,192.8,249.3,199.8z"/>
		<path class="st3" d="M11.4,215.2c3.7-9.4,7.5-18.8,11.7-27.9c1.5-3.3,3.5-5.1,5.9-7.7c10-10.8,21.1-21.1,33.2-31
			c1-0.8,1.7-0.6,2.1,0.6c0.2,0.7-0.1,1.7-0.9,2.9c-12.5,17.5-18.8,28.5-27.5,43.5c-4.5,7.9-12.3,13.4-18.4,20
			c-1.9,2-3.7,3.9-5.5,5.8c-0.6,0.6-1.5,0.2-1.5-0.6C10.5,218.6,10.8,216.8,11.4,215.2z"/>
		<path class="st4" d="M176.7,213.7c-1.1-1.4-1.7-2.7-2.2-4.3c-5.2-16-9.9-32.3-14.2-49c-0.3-1,0.2-2,1-2.5c1.2-0.7,2.4-0.2,3.7,1.4
			c15.2,19.9,25.4,33.6,30.5,41c1.6,2.3,2.8,5.8,3.6,10.5c1.5,8.6,2.9,17.6,4.3,26.7c0.2,1.2-1,2.2-2.2,1.8
			c-0.8-0.3-1.6-0.8-2.4-1.6C191.1,230.1,183.7,222.1,176.7,213.7z"/>
		<path class="st2" d="M49,248.9c-0.7,1.3-1.4,2.5-2.2,3.7c-0.5,0.7-1.4,0.8-2,0.3c-0.5-0.4-0.7-1-0.7-1.9
			c-0.2-11.7,1.9-24.4,3.5-36.1c0.3-2,1.9-5.6,4.8-10.6c8-13.6,16.5-26.9,25.6-39.8c0.6-0.9,1.5-1.3,2.4-1.2
			c0.8,0.1,1.4,0.9,1.2,1.7c-0.6,2.4-1.4,4.8-2.2,7.1c-5.7,15.5-10.4,31.4-13.8,47.6c-0.2,0.8-1,3.2-1.5,4
			C58.7,231.9,53.7,240.3,49,248.9z"/>
		<path class="st1" d="M147,258.4c-5.4-9-10.9-18.7-15.4-28.2c-1.9-4-2-9.4-2-13c-0.1-15,0.4-30.1,1.3-45.1c0.1-1.4,0.5-2.4,1.3-3.1
			c0.9-0.8,2.2-0.5,2.7,0.5c0.8,1.4,1.4,3,1.9,4.7c4.8,14.9,9.6,29.7,14.4,44.6c0.8,2.4,1.1,4.9,0.9,7.5
			c-0.8,10.4-1.3,20.8-1.4,31.2c0,1.7-0.8,2.3-2.4,2C147.8,259.3,147.3,258.9,147,258.4z"/>
		<path class="st0" d="M101.2,175.9c0.6-1.8,1.2-3.7,2.5-5c0.9-0.9,2.4-0.4,2.6,0.8c1.4,7.1-0.1,15.5-0.7,22.7
			c-0.4,4.2-0.1,14.2,0.8,30c0.2,3.2-0.2,6.6-1.3,9.9c-3.2,9.5-6.2,19.3-8.8,29.2c-0.2,0.7-0.8,1.3-1.5,1.4
			c-1.1,0.2-1.7-0.2-2.1-1.2c-0.6-1.9-1.1-3.8-1.5-5.8c-2.9-13.2-4.7-22.4-5.4-27.5c-0.4-2.4-0.1-5.3,0.9-8.8
			C90.9,206.2,95.7,191,101.2,175.9z"/>
		<path class="st5" d="M538.5,163.6h66.3c0.9,0,1.7,0.7,1.7,1.7V190c0,0.9-0.7,1.7-1.7,1.7h-66.3c-0.9,0-1.7,0.7-1.7,1.7v70
			c0,0.9-0.7,1.7-1.7,1.7h-26.5c-0.9,0-1.7-0.7-1.7-1.7V89.9c0-0.9,0.7-1.7,1.7-1.7H617c0.9,0,1.7,0.7,1.7,1.7v24.7
			c0,0.9-0.7,1.7-1.7,1.7h-78.6c-0.9,0-1.7,0.7-1.7,1.7v44C536.8,162.9,537.5,163.6,538.5,163.6z"/>
		<path class="st5" d="M674.3,155.7c-0.1,34.4-0.1,69.3,0.1,104.6c0,1.5-0.1,2.7-0.4,3.6c-0.2,0.8-0.8,1.2-1.6,1.2l-22.9,0
			c-1.5,0-2.3-0.8-2.3-2.3v-172c0-1.5,0.7-2.2,2.2-2.3c7.8,0,15.6,0,23.6,0c2.6,0,3.4,2.4,4.3,4.5c15.3,35.4,30.5,70.9,45.8,106.3
			c0.2,0.5,0.5,0.5,0.9,0.3c0.1,0,0.1-0.2,0.3-0.5c15.3-36,30.6-72.1,45.9-108.3c0.6-1.4,2-2.3,3.5-2.3l23.2,0c1.3,0,2,0.7,2,2v173
			c0,0.8-0.7,1.5-1.5,1.5h-23.5c-1,0-1.8-0.8-1.8-1.8V156.5c0-2.5-0.5-2.6-1.5-0.3L735.1,238c-0.8,1.8-2.6,3-4.5,3h-14.9
			c-1.9,0-3.6-1.1-4.4-2.9l-35.9-82.6C674.7,153.8,674.3,153.9,674.3,155.7z"/>
		<path class="st5" d="M872.2,200.1c-0.1,0.3,0.1,0.5,0.4,0.5l44.5,0.1c0.3,0,0.5-0.3,0.4-0.5l-22.1-67.3c-0.1-0.4-0.6-0.4-0.7,0
			L872.2,200.1z M925.4,228.2l-61.3,0c-0.7,0-1.4,0.5-1.6,1.1l-11.4,34.5c-0.2,0.7-0.9,1.1-1.6,1.1h-26.1c-1.1,0-1.9-1.1-1.6-2.2
			l59-173.2c0.2-0.7,0.9-1.1,1.6-1.1h25.6c0.7,0,1.3,0.5,1.6,1.1l58.2,173.2c0.4,1.1-0.4,2.2-1.6,2.2H940c-0.7,0-1.4-0.5-1.6-1.1
			L927,229.4C926.8,228.7,926.2,228.2,925.4,228.2"/>
		<path class="st5" d="M435.8,195c-10.1-4.8-23.3-5.6-34.5-7.3c-3.1-0.5-7.3-1.6-12.8-3.5c-23.1-8-34.4-26.2-31.7-50.6
			c3.2-27.8,24.6-43.2,51.2-44.7c21.8-1.2,42.8,4,60.8,16.5c1.8,1.3,2.1,2.9,0.9,4.8c-4,6.1-8,12.1-11.9,18.1
			c-0.8,1.2-2.5,1.6-3.7,0.8c-13.5-8.8-27.7-14-44.1-13.2c-10.7,0.5-20.4,6.4-22.7,17.5c-5.2,25.4,26.6,27.2,43,29.6
			c13.3,1.9,28.1,7.6,37.2,17.3c11.1,11.8,12.6,31.9,8.5,47c-4.1,15.2-15.1,26.1-30,32c-29.7,11.6-72.2,5.1-95.4-17.5
			c-1-1-1.1-2.5-0.2-3.6l16-18.5c0.7-0.9,2-1,2.9-0.2c16.2,13.8,41.1,23.2,62.2,16C449.8,229.1,455,204.1,435.8,195z"/>
		<path class="st5" d="M165.7,316.6c0.2,0.3,0.5,0.6,0.9,0.8c4.1,2.5,7,8,8.3,12.5c0.1,0.3,0.3,0.4,0.6,0.2
			c3.7-2.2,8.5-7.8,6.2-12.4c-2.5-4.8-11.7-3.6-15.6-2C165.6,315.9,165.5,316.2,165.7,316.6z M129.6,314.5
			c-10.6-1.4-12,16.6-4.2,18.4c2.5,0.6,5.8,0.7,9.7,0.4c0.3,0,0.5-0.2,0.5-0.5C135.9,326,137.3,315.5,129.6,314.5 M215,338.2
			c-1.7,2.3-4.2,3.4-7.5,3.4c-8.9,0.1-17.9,0.1-26.8,0c-1.8,0-4-0.7-6.5-2.1c-0.3-0.2-0.6-0.2-1,0c-3.1,1.4-5.6,2.1-7.5,2.1
			c-6.7,0-13.3,0.1-20,0c-0.4,0-0.5,0.2-0.5,0.5c0.8,18.2-13.5,16.4-26.4,16.2c-0.5,0-0.8-0.4-0.8-0.8l-0.1-6.9
			c0-0.5,0.3-0.8,0.8-0.8c6,0,17.8,2.4,17-7.7c0-0.3-0.2-0.5-0.6-0.5c-9,0-19.7,1.5-23-9.5c-0.8-2.9-1.1-6.5-0.7-10.8
			c1.7-20.8,33.1-21.1,33.7,0c0.1,3.8,0.2,7.6,0.1,11.4c0,0.4,0.2,0.5,0.5,0.5c6.8,0.1,14.1,0.5,20.7-0.7c0.3-0.1,0.4-0.2,0.3-0.5
			c-1.8-6.8-5.9-9.3-10.9-13.1c-0.3-0.2-0.4-0.5-0.4-0.8c-0.1-2.7-1-7.4,2-8.8c8.6-3.9,28-6.8,33.2,3.5c3.4,6.7,0,15.1-6,19.4
			c-0.9,0.7-0.8,1,0.3,1c5.8,0.1,11.6,0.1,17.5,0c2.9,0,4.3-1.4,4.4-4.2c0.1-4.9,0.1-9.6,0.1-14c0-0.8,0.4-1.2,1.2-1.2l7.1,0
			c0.8,0,1.2,0.4,1.3,1.2c0,4.3,0.1,8.8,0,13.3c0,4.5,3.3,5.2,7,4.9c2.7-0.2,4.1-1.7,4.2-4.5c0.1-4.8,0.1-9.5,0.1-14.2
			c0-0.5,0.4-0.8,0.8-0.8l8,0c0.4,0,0.7,0.3,0.7,0.7c0.1,4.8,0.1,9.8,0.1,14.8c-0.1,4.7,10.7,5.9,11,0c0.3-7,0.4-14,0.3-20.9
			c0-0.8,0.4-1.1,1.1-1.1h7c0.8,0,1.2,0.4,1.2,1.2c0,6.6,0,13.3,0,20.1c0,5.5,10,5,13.5,4.5c1.6-0.2,2.3-1.2,2.3-2.8
			c0.1-14.4,0.2-28.9,0.2-43.6c0-0.8,0.4-1.3,1.3-1.3h7c0.8,0,1.3,0.4,1.3,1.3c0,15.7,0,31.3,0,46.8c0,6.4-4.8,8-10.5,8
			c-4.5,0-12.8,1.2-15.5-3.1c-0.3-0.4-0.6-0.4-0.9-0.1c-1.9,1.9-3.8,3-5.9,3.1c-5.5,0.3-10.9,1.2-14.2-3.3c-0.2-0.3-0.5-0.3-0.7,0
			c-1.4,2.1-3.2,3.2-5.5,3.3c-5.8,0.3-11.5,1.2-14.6-3.3C215.4,337.9,215.3,337.9,215,338.2"/>
		<path class="st5" d="M303.4,340.6c0,0.6-0.5,1-1,1H295c-0.6,0-1-0.5-1-1v-54c0-0.6,0.5-1,1-1h7.5c0.6,0,1,0.5,1,1V340.6z"/>
		<path class="st5" d="M453.4,340.7c0,0.5-0.4,0.9-0.9,0.9h-7.6c-0.5,0-0.9-0.4-0.9-0.9v-54.2c0-0.5,0.4-0.9,0.9-0.9h7.6
			c0.5,0,0.9,0.4,0.9,0.9V340.7z"/>
		<path class="st5" d="M518.2,321.3c0-3.8-3.1-6.9-6.9-6.9h-1.1c-3.8,0-6.9,3.1-6.9,6.9v5.6c0,3.8,3.1,6.9,6.9,6.9h1.1
			c3.8,0,6.9-3.1,6.9-6.9V321.3z M477.3,340.2c-0.2,1.7-0.3,3.4-0.4,5.1c-0.6,10.7-7.5,13.7-17.1,13c-0.8-0.1-1.1-0.5-1.1-1.2l0-6
			c0-0.7,0.5-1.2,1.2-1.2c7.9-0.2,7.9-3.7,8-10.3c0.1-10.5,0.2-20.9,0.2-31.2c0-0.7,0.4-1,1-1l7.2,0c0.7,0,1,0.3,1,1
			c0,6.1,0,12.4,0,19c0,6.1,6.1,6.2,10.5,6c3.6-0.1,5.5-2,5.7-5.7c0.5-9.7,0.9-18.8,12.3-21.4c4-0.9,7.9-0.7,11.7,0.5
			c8.8,2.9,10.4,10.4,10.4,18.7c0,4.7,0.5,7.5,5.7,7.8c2.8,0.1,9.2,0.9,9.2-3.2c0-14.3,0-28.7,0-43.3c0-0.8,0.4-1.2,1.2-1.2l7.1,0
			c0.8,0,1.2,0.4,1.2,1.2c0,14.6,0,29.4,0,44.4c0,7.8-2.7,10.4-10.4,10.5c-6.8,0.1-13.3,1.2-17.9-3.6c-0.3-0.3-0.5-0.3-0.7,0
			c-5.8,6.1-19,5.7-25.2,0.1c-0.3-0.3-0.5-0.2-0.8,0c-2,2.3-4.1,3.4-6.4,3.5c-5.1,0.2-9.6,0.8-13.1-1.6
			C477.5,339.7,477.3,339.8,477.3,340.2"/>
		<path class="st5" d="M572.1,340.9c0,0.4-0.3,0.7-0.7,0.7h-7.9c-0.4,0-0.7-0.3-0.7-0.7v-54.7c0-0.4,0.3-0.7,0.7-0.7h7.9
			c0.4,0,0.7,0.3,0.7,0.7V340.9z"/>
		<path class="st5" d="M676.8,340.7c0,0.5-0.4,1-1,1h-7.6c-0.5,0-1-0.4-1-1v-54.1c0-0.5,0.4-1,1-1h7.6c0.5,0,1,0.4,1,1V340.7z"/>
		<path class="st5" d="M737.1,340.8c0,0.5-0.4,0.9-0.9,0.9h-7.5c-0.5,0-0.9-0.4-0.9-0.9v-54.3c0-0.5,0.4-0.9,0.9-0.9h7.5
			c0.5,0,0.9,0.4,0.9,0.9V340.8z"/>
		<path class="st5" d="M17.2,295c0,0.6-0.5,1.1-1.1,1.1l-6.6,0c-0.6,0-1.1-0.5-1.1-1.1l0-6.9c0-0.6,0.5-1.1,1.1-1.1l6.6,0
			c0.6,0,1.1,0.5,1.1,1.1L17.2,295z"/>
		<path class="st5" d="M28,295.1c0,0.5-0.4,1-1,1l-6.8,0c-0.5,0-1-0.4-1-1l0-7.1c0-0.5,0.4-1,1-1l6.8,0c0.5,0,1,0.4,1,1L28,295.1z"
			/>
		<path class="st5" d="M781.7,294.9c0,0.6-0.5,1.2-1.2,1.2l-6.4,0c-0.6,0-1.2-0.5-1.2-1.2l0-6.7c0-0.6,0.5-1.2,1.2-1.2l6.4,0
			c0.6,0,1.2,0.5,1.2,1.2L781.7,294.9z"/>
		<path class="st5" d="M792.5,295.1c0,0.5-0.4,1-0.9,1l-6.8,0.1c-0.5,0-1-0.4-1-0.9l-0.1-7.1c0-0.5,0.4-1,0.9-1l6.8-0.1
			c0.5,0,1,0.4,1,0.9L792.5,295.1z"/>
		<path class="st5" d="M371.3,298.3c0,0.5-0.4,1-1,1l-6.8,0c-0.5,0-1-0.4-1-1l0-7c0-0.5,0.4-1,1-1l6.8,0c0.5,0,1,0.4,1,1
			L371.3,298.3z"/>
		<path class="st5" d="M382.1,298.1c0,0.6-0.5,1.2-1.2,1.2l-6.7,0c-0.6,0-1.2-0.5-1.2-1.2l0-6.7c0-0.6,0.5-1.2,1.2-1.2l6.7,0
			c0.6,0,1.2,0.5,1.2,1.2L382.1,298.1z"/>
		<path class="st5" d="M422.4,298.3c0,0.6-0.4,1-1,1l-7.8,0c-0.6,0-1-0.4-1-1l0-7c0-0.6,0.4-1,1-1l7.8,0c0.6,0,1,0.4,1,1
			L422.4,298.3z"/>
		<path class="st5" d="M616.7,298.4c0,0.5-0.4,0.9-0.9,0.9h-7c-0.5,0-0.9-0.4-0.9-0.9v-7.2c0-0.5,0.4-0.9,0.9-0.9h7
			c0.5,0,0.9,0.4,0.9,0.9V298.4z"/>
		<path class="st5" d="M627.5,298.3c0,0.6-0.5,1-1,1l-6.7,0c-0.6,0-1-0.5-1-1l0-7c0-0.6,0.5-1,1-1l6.7,0c0.6,0,1,0.5,1,1
			L627.5,298.3z"/>
		<path class="st5" d="M17.2,329.8c8.6,0.6,8.4-8.9,7.6-14.9c0-0.3-0.2-0.4-0.5-0.5c-6.3-0.3-13-1.1-13.9,6.2
			C9.6,326.4,11.9,329.4,17.2,329.8z M25,336c-5.2,2.8-10.4,3.2-15.6,1.2c-7.7-3-9.3-9.9-8.6-17.4c1.2-13.9,12.7-14.1,23.6-13.9
			c0.4,0,0.5-0.2,0.5-0.5l0-3c0-0.4,0.3-0.7,0.7-0.7l7.7-0.1c0.6,0,1,0.5,1,1c0,9.2,0,18.2,0,27c0,0.9,0.2,1.8,0.7,2.6
			c0.2,0.3,0.4,0.5,0.7,0.6c3.4,1.1,8.7,0.6,12.3,0.5c2.2-0.1,3.3-1.2,3.3-3.5v-21c0-0.8,0.7-1.5,1.5-1.5l6.5,0
			c0.8,0,1.5,0.7,1.5,1.5c0.1,11.8,0.1,20-0.1,24.6c-0.2,5.3-3,8-8.4,8.1c-6.8,0.1-13.5,0.2-20.3,0.1c-3.4,0-5.6-1.8-6.6-5.4
			C25.5,335.9,25.3,335.8,25,336"/>
		<path class="st5" d="M912.8,321.5c0-3.8-3-6.9-6.9-7l-1.2,0c-3.8,0-6.9,3-7,6.9l0,5.5c0,3.8,3,6.9,6.9,7l1.2,0c3.8,0,6.9-3,7-6.9
			L912.8,321.5z M865.2,322.2c3.1-9.9-11.7-8.3-16.4-6.3c-0.2,0.1-0.2,0.3-0.1,0.4c4.8,3.4,7.9,7.9,9.4,13.6
			c0.1,0.3,0.3,0.4,0.6,0.2C862,328.3,864.2,325.6,865.2,322.2 M788.9,314.4c-8.9-0.4-16.1-0.3-14.1,10.7c0.5,2.8,2.4,4.3,5.6,4.6
			c9.9,1,9.2-7.9,8.9-14.9C789.4,314.6,789.2,314.4,788.9,314.4 M789.5,336c-4.8,2.7-9.7,3.2-14.6,1.6c-8.7-2.8-10.7-10.6-9.5-18.9
			c1.9-13.2,13.1-13.1,23.5-12.8c0.4,0,0.5-0.2,0.5-0.5v-2.5c0-0.7,0.6-1.3,1.3-1.3l7,0c0.8,0,1.2,0.4,1.2,1.3v27
			c0,2.2,1.1,3.3,3.3,3.4c2.8,0.1,10.8,0.8,12.9-1c0.6-0.5,0.9-1.2,1-2.2c0.6-7.4,0.4-14.8,0.4-21.8c0-0.7,0.3-1,1-1h7.3
			c0.6,0,1,0.4,1,1c0,5.4,0,10.9,0,16.7c0,5.5,0.9,8.1,6.8,8.2c7.4,0.2,13.2,0,17.2-0.4c0.4,0,0.6-0.4,0.5-0.7
			c-1.6-5.8-5.8-9.6-10.6-12.7c-0.6-0.3-0.9-0.9-0.9-1.6v-6.2c0-0.3,0.1-0.6,0.3-0.8c0.5-0.7,1.1-1.2,1.7-1.5
			c8.6-3.9,28.3-6.8,33.3,3.7c3.5,7.2-0.4,14.5-6.1,19.3c-0.7,0.6-0.6,0.9,0.3,0.9c4.3,0.1,8.6,0.2,13,0.2c4.6,0.1,6.9-2.1,6.9-6.6
			c0-6.4,0.1-11.9,4.3-16.4c4.7-5.1,13.5-5.7,19.8-3.6c9.1,2.9,10.3,12,9.9,20.7c-0.1,3.6,1.8,5.5,5.7,5.5
			c10.8,0.2,18.7,0.2,23.8,0.2c1,0,2.1-0.2,3.1-0.6c4.8-1.6,3.2-10.6,1.6-13.9c-2.3-4.9-8.8-5.4-13-3.4c-1.5,0.7-2.9,2-4.4,3.1
			c-0.3,0.2-0.6,0.2-0.8-0.1l-4-4c-0.7-0.7-0.7-1.4-0.1-2.2c3.6-4.3,8.5-6.4,14.6-6.3c16,0.1,20.4,11.8,18.9,25.8
			c-1,9.2-6.9,10-15.2,10c-8.6,0-17.2,0-25.7-0.1c-3.3,0-5.9-1.2-8-3.6c-0.2-0.3-0.7-0.3-0.9,0c-5.9,6.2-19.1,5.5-25.1,0.1
			c-0.2-0.2-0.5-0.2-0.7,0c-3.5,3.9-6.7,3.5-12.7,3.5c-6.9,0.1-15.4,1.2-21.7-2.1c-0.3-0.2-0.6-0.2-0.9,0
			c-7.3,3.4-17.2,2.2-25.1,2.2c-2.7,0-4.9-1.1-6.5-3.2c-0.2-0.3-0.4-0.3-0.7,0c-1.8,2.2-4.2,3.3-7.1,3.3c-6.9,0-13.9,0-20.8-0.1
			c-3.4,0-5.6-1.8-6.4-5.4C790,335.9,789.8,335.8,789.5,336"/>
		<path class="st5" d="M90.5,315.4c-3.6-1.9-10.7-1.1-14.6-1.1c-0.9,0-1.3-0.4-1.3-1.3l0-5.8c0-0.9,0.5-1.4,1.4-1.4
			c11.3-0.1,25.9-2.5,27.1,13c0.5,6.8,0.2,12.2-0.9,16.3c-1.5,5.5-6.1,6.4-11.6,6.5c-6.5,0.1-12.9,0.1-19.1,0
			c-0.5,0-0.8-0.3-0.7-0.8l0-6.8c0-0.5,0.3-0.8,0.8-0.8c8.7,0.2,14.6,0.2,17.7-0.1c2.6-0.2,3.9-1.7,4.1-4.4
			C93.7,324.9,94.7,317.6,90.5,315.4z"/>
		<path class="st5" d="M425.1,321.4c0-3.8-3.1-6.9-7-6.9l-1.2,0c-3.8,0-6.9,3.1-6.9,7l0,5c0,3.8,3.1,6.9,7,6.9l1.2,0
			c3.8,0,6.9-3.1,6.9-7L425.1,321.4z M365.5,318.8c-1.3,3.3-1.9,12.1,2.8,13.7c3,1,6.6,1.3,10.8,0.7c0.3,0,0.4-0.2,0.4-0.5
			c0.1-5.4,0.1-9.1,0-11.1C379,313.4,368.3,311.6,365.5,318.8 M379.2,341.6c-8.1,0.1-16.4,0.9-20.8-5c-3.8-5.1-3.9-14.4-2-20.5
			c2.7-8.5,12.3-11.8,20.5-9.8c13.6,3.2,12.4,15.5,12.2,26.6c0,0.4,0.2,0.5,0.5,0.5l12.2,0c0.1,0,0.2-0.1,0.2-0.3
			c-2.7-7.2-2.3-16.7,3.1-22.5c5.4-5.8,16.2-6,22.7-2.2c8.1,4.7,8.8,20.9,3.6,28c-2.6,3.5-6.3,5.3-11.1,5.3c-10.2,0-20.5,0-30.7,0
			c-0.4,0-0.5,0.2-0.5,0.5c0,2.4,0.2,5.2-0.4,7.3c-1.7,6.4-8.1,8.6-14.2,8.7c-7.6,0.2-15.2,0.3-22.8,0.2
			c-21.3-0.2-25.3-18.7-15.8-34.4c0.5-0.9,1.6-1.2,2.5-0.7l5.3,2.7c1.1,0.5,1.3,1.3,0.7,2.3c-5.7,9.4-5.3,21.3,9,21.4
			c6.6,0.1,13.3,0.1,19.9,0c5.1,0,7.2-2.5,6.4-7.6C379.7,341.8,379.5,341.6,379.2,341.6"/>
		<path class="st5" d="M624.9,321.3c0-3.8-3.1-6.9-6.9-6.9h-1.1c-3.8,0-6.9,3.1-6.9,6.9v5.6c0,3.8,3.1,6.9,6.9,6.9h1.1
			c3.8,0,6.9-3.1,6.9-6.9V321.3z M634.4,327.3c0,8.3-6.7,15-15,15h-3.8c-8.3,0-15-6.7-15-15V321c0-8.3,6.7-15,15-15h3.8
			c8.3,0,15,6.7,15,15V327.3"/>
		<path class="st5" d="M703.2,333.3c7.3-0.2,5.8-6.5,5.6-11.7c-0.1-4.4-2.3-6.7-6.6-7.1c-2.2-0.2-5.9-0.2-11.3-0.1
			c-0.7,0-1.1-0.3-1.1-1.1l0-6.2c0-0.7,0.5-1.2,1.2-1.2c7.7-0.2,12.8-0.1,15.3,0.1c9.8,0.9,11.9,8.1,12,16.5
			c0.1,6.7,0.8,18.7-9,19.1c-3.2,0.1-10.5,0.1-22.1,0c-0.8,0-1.2-0.4-1.2-1.2l0-5.8c0-0.7,0.5-1.2,1.2-1.2
			C692.6,333.4,697.9,333.4,703.2,333.3z"/>
		<path class="st5" d="M640,349.9c4.4,0.2,7.4-1.1,7.5-6c0.2-11.9,0.3-23.6,0.3-35.3c0-0.9,0.4-1.3,1.3-1.3l7,0
			c0.8,0,1.3,0.4,1.3,1.3c0,11.2,0,22.6,0,34c0,11.7-5.9,16.4-17.3,15.8c-1-0.1-1.5-0.6-1.5-1.6l0-5.5
			C638.5,350.4,639,349.9,640,349.9z"/>
		<path class="st5" d="M725.9,359.6c-4.1-10.3,6.7-15.8,14.7-10c0.7,0.5,0.8,1.5,0.1,2.1l-1.2,1.1c-0.7,0.7-1.4,0.7-2.2,0.2
			c-8-5.4-9.8,7.3-2.6,7.2c2.2,0,4.3,0,6.2,0c0.5,0,0.8,0.3,0.8,0.8l0,2.5c0,0.7-0.3,1-1,1h-17c-0.5,0-0.7-0.3-0.7-0.8l0-2.6
			c0-0.6,0.3-0.9,0.9-0.9l1.8,0C726,360.2,726.1,360,725.9,359.6z"/>
		<path class="st5" d="M45.3,357.4c-0.4,0-0.8-0.3-0.8-0.8l0-6.7c0-0.9,0.7-1.5,1.4-1.5l5.9,0c0.8,0,1.4,0.7,1.4,1.5l0,6.7
			c0,0.4-0.3,0.8-0.8,0.8L45.3,357.4z"/>
		<path class="st5" d="M64.1,356.5c0,0.5-0.4,0.9-0.9,0.9l-7,0c-0.5,0-0.9-0.4-0.9-0.9l-0.1-7.2c0-0.5,0.4-0.9,0.9-0.9l7,0
			c0.5,0,0.9,0.4,0.9,0.9L64.1,356.5z"/>
		<path class="st5" d="M819.7,356.5c0,0.5-0.4,0.9-0.9,0.9h-6.9c-0.5,0-0.9-0.4-0.9-0.9v-7.1c0-0.5,0.4-0.9,0.9-0.9h6.9
			c0.5,0,0.9,0.4,0.9,0.9V356.5z"/>
		<path class="st5" d="M830.3,356.4c0,0.5-0.4,1-1,1l-6.8,0.1c-0.5,0-1-0.4-1-1l-0.1-7.1c0-0.5,0.4-1,1-1l6.8-0.1c0.5,0,1,0.4,1,1
			L830.3,356.4z"/>
		<path class="st5" d="M954.7,356.5c0,0.5-0.4,1-1,1l-7.8,0c-0.5,0-1-0.4-1-1l0-7.1c0-0.5,0.4-1,1-1l7.8,0c0.5,0,1,0.4,1,1
			L954.7,356.5z"/>
		<path class="st5" d="M9.4,387.2c-1.5,9.6,20.3,1.8,20.8,17.3c0.3,9.5-8.6,13.2-16.8,12.4c-4.6-0.5-8.6-2-11.9-4.5
			c-0.9-0.7-1-1.5-0.2-2.3l2.6-3c0.7-0.8,1.5-0.9,2.3-0.1c3.2,3,9.8,4.6,13.5,3c5.2-2.3,4.2-8.5-1.3-9.5c-5.8-1.1-14.6-1.7-15.9-9.2
			C-0.5,375.2,18,374,27.6,380c0.7,0.4,0.9,1.3,0.4,2l-2.1,3.3c-0.5,0.8-1.2,1-2,0.4C20.3,383.2,10.5,380.4,9.4,387.2z"/>
		<path class="st5" d="M113.8,399.1c0-2.8-2.3-5-5-5H108c-2.8,0-5,2.3-5,5v6.8c0,2.8,2.3,5,5,5h0.7c2.8,0,5-2.3,5-5V399.1z
			 M113.9,390l0-12c0-0.5,0.3-0.8,0.8-0.8l5.2,0c0.5,0,0.7,0.3,0.7,0.7v37.6c0,0.4-0.3,0.8-0.8,0.8l-5.3,0c-0.3,0-0.6-0.2-0.6-0.6
			l-0.1-0.7c-0.1-0.5-0.3-0.5-0.6-0.3c-7,5.3-16.4,1.4-17-7.5c-0.7-9.5-0.4-21.3,13.2-19.1c1.6,0.3,2.7,1.1,4,2
			C113.7,390.4,113.9,390.3,113.9,390"/>
		<path class="st5" d="M135.4,383c0,0.4-0.3,0.7-0.7,0.7l-5.3,0c-0.4,0-0.7-0.3-0.7-0.7l0-5.1c0-0.4,0.3-0.7,0.7-0.7l5.3,0
			c0.4,0,0.7,0.3,0.7,0.7L135.4,383z"/>
		<path class="st5" d="M164,384v9.1c0,0.3,0.3,0.6,0.6,0.6l14.9,0c0.3,0,0.6,0.3,0.6,0.6l0,5.4c0,0.3-0.3,0.6-0.6,0.6h-14.9
			c-0.3,0-0.6,0.3-0.6,0.6v14.9c0,0.3-0.3,0.6-0.6,0.6l-5.9,0c-0.3,0-0.6-0.3-0.6-0.6l0-38c0-0.3,0.3-0.6,0.6-0.6h24.7
			c0.3,0,0.6,0.2,0.6,0.6l0,5.1c0,0.3-0.3,0.6-0.6,0.6l-17.7,0C164.2,383.5,164,383.7,164,384z"/>
		<path class="st5" d="M250.3,382.9c0,0.4-0.3,0.8-0.8,0.8l-5.2,0c-0.4,0-0.8-0.3-0.8-0.8l0-4.9c0-0.4,0.3-0.8,0.8-0.8l5.2,0
			c0.4,0,0.8,0.3,0.8,0.8L250.3,382.9z"/>
		<path class="st5" d="M266.4,410.5c0.7,0.2,1.3,0.3,2,0.3c0.4,0,0.8,0.3,0.8,0.7v4.5c0,0.5-0.3,0.8-0.8,0.8c-7,0.2-9.9-1.1-10-8.6
			c0-10.1,0-20.2,0-30.3c0-0.5,0.2-0.7,0.7-0.7l5.1,0.1c0.4,0,0.7,0.3,0.7,0.7l0,30.6C264.9,409.4,265.5,410.2,266.4,410.5z"/>
		<path class="st5" d="M281.7,382.9c0,0.4-0.4,0.8-0.8,0.8l-4.9,0c-0.4,0-0.8-0.4-0.8-0.8l0-4.9c0-0.4,0.4-0.8,0.8-0.8l4.9,0
			c0.4,0,0.8,0.4,0.8,0.8L281.7,382.9z"/>
		<path class="st5" d="M355.8,393.3l0,22.7c0,0.2-0.1,0.3-0.3,0.3l-5.6,0.1c-0.2,0-0.3-0.1-0.3-0.3v-38.5c0-0.2,0.1-0.3,0.3-0.3
			l6.1,0.1c0.1,0,0.2,0.1,0.3,0.2l10.6,23.7c0.1,0.3,0.5,0.2,0.6,0l10.4-23.7c0.1-0.1,0.2-0.2,0.3-0.2l6,0c0.2,0,0.3,0.1,0.3,0.3
			V416c0,0.2-0.1,0.3-0.3,0.3l-5.6,0c-0.2,0-0.3-0.1-0.3-0.3v-22.5c0-0.3-0.5-0.4-0.6-0.1l-7.9,17.5c-0.1,0.1-0.2,0.2-0.3,0.2
			l-4.7-0.1c-0.1,0-0.2-0.1-0.3-0.2l-7.9-17.7C356.2,392.8,355.8,392.9,355.8,393.3z"/>
		<path class="st5" d="M694,401.6c-0.1,0.2,0.1,0.4,0.3,0.4l9.3,0c0.2,0,0.4-0.2,0.3-0.4l-4.6-13.4c-0.1-0.3-0.5-0.3-0.6,0
			L694,401.6z M688.7,416.2l-5.8,0c-0.4,0-0.7-0.4-0.6-0.8l13.3-37.8c0.1-0.3,0.3-0.4,0.6-0.4l5.7,0c0.3,0,0.5,0.2,0.6,0.4
			l13.2,37.8c0.1,0.4-0.2,0.8-0.6,0.8h-5.8c-0.3,0-0.5-0.2-0.6-0.4l-2.4-7.2c-0.1-0.3-0.3-0.4-0.6-0.4l-13.6,0
			c-0.3,0-0.5,0.2-0.6,0.4l-2.3,7.1C689.2,416.1,689,416.2,688.7,416.2"/>
		<path class="st5" d="M841.3,382.8c0,0.5-0.4,0.9-0.9,0.9l-4.7,0c-0.5,0-0.9-0.4-0.9-0.9l0-4.8c0-0.5,0.4-0.9,0.9-0.9l4.7,0
			c0.5,0,0.9,0.4,0.9,0.9L841.3,382.8z"/>
		<path class="st5" d="M904.4,383c0,0.4-0.3,0.7-0.6,0.7l-5.2,0c-0.4,0-0.7-0.3-0.7-0.6l0-5.2c0-0.4,0.3-0.7,0.6-0.7l5.2,0
			c0.4,0,0.7,0.3,0.7,0.6L904.4,383z"/>
		<path class="st5" d="M296.9,394.2l0.1,14.9c0,0.5,0.3,0.9,0.7,1c0.9,0.4,1.8,0.6,2.8,0.6c0.6,0,1,0.4,1,1l0,4c0,0.7-0.3,1-1,1
			c-5.2,0.3-10.1-0.7-10.2-6.8c-0.1-2.5-0.1-7.7-0.1-15.7c0-0.4-0.2-0.5-0.5-0.5h-1.5c-0.5,0-0.8-0.3-0.8-0.8l0-3.7
			c0-0.5,0.2-0.7,0.7-0.7l1.5,0c0.3,0,0.5-0.2,0.5-0.5l0-7.4c0-0.3,0.1-0.4,0.4-0.4l5.8,0.1c0.3,0,0.5,0.2,0.5,0.5l0,7.3
			c0,0.3,0.2,0.5,0.5,0.5l2.7,0c0.9,0,1.3,0.4,1.3,1.3l0,2.8c0,0.8-0.4,1.2-1.3,1.3h-2.8C297.1,393.7,296.9,393.9,296.9,394.2z"/>
		<path class="st5" d="M661.2,393.7c-0.4,0-0.7,0.3-0.7,0.7l0,13.8c0,1.3,1,2.3,2.2,2.5l1.7,0.2c0.5,0.1,0.8,0.4,0.8,0.9v4.1
			c0,0.6-0.3,0.9-0.9,1c-4.6,0.2-10.1-0.3-10.3-6.1c-0.1-5.5-0.1-11-0.1-16.5c0-0.3-0.2-0.5-0.5-0.5l-1.7,0.1
			c-0.4,0-0.5-0.2-0.5-0.5v-4.1c0-0.4,0.2-0.6,0.6-0.6l1.4-0.1c0.5,0,0.7-0.3,0.7-0.8v-7.3c0-0.1,0.1-0.2,0.3-0.2l6,0
			c0.1,0,0.3,0.1,0.3,0.3l0,7.5c0,0.3,0.2,0.5,0.5,0.5l3.5,0c0.5,0,0.8,0.3,0.8,0.8l0,3.7c0,0.5-0.3,0.7-0.7,0.7H661.2z"/>
		<path class="st5" d="M879.3,393.7l-1.7,0.1c-0.3,0-0.5-0.2-0.5-0.5l0-4.3c0-0.3,0.2-0.5,0.5-0.5l1.8,0c0.3,0,0.5-0.2,0.5-0.5v-7.3
			c0-0.3,0.2-0.5,0.5-0.5l5.5,0c0.3,0,0.5,0.2,0.5,0.5v7.2c0,0.3,0.2,0.5,0.5,0.5l3,0c0.8,0,1.2,0.4,1.2,1.2v2.7
			c0,0.8-0.4,1.3-1.3,1.3h-3c-0.3,0-0.5,0.2-0.5,0.5c-0.1,3.3-0.1,7.8,0,13.5c0,2.2,1.2,3.1,3.6,3c0.7-0.1,1.1,0.3,1.1,1l0,3.8
			c0,0.7-0.4,1.1-1.1,1.2c-7.7,0.8-10.2-1.9-10.2-9.3c0-4.4,0-8.8-0.1-13.3C879.8,393.9,879.7,393.7,879.3,393.7z"/>
		<path class="st5" d="M41.6,407.5c-0.7,6.1,11.8,5.8,10.6-2.2c-0.1-0.3-0.2-0.5-0.5-0.5c-2.6-0.3-6.6-0.5-8.8,0.8
			C42.2,406,41.7,406.7,41.6,407.5z M51.6,414.8c-5.1,3.5-15.2,3.3-16.2-4.6c-1.3-10.5,7.2-10.8,14.8-10.5c1.7,0.1,2.3-0.7,1.9-2.3
			l-0.2-0.9c-0.4-1.7-1.5-2.7-3.3-2.8c-2.1-0.2-3.9-0.1-5.3,0.2c-1.2,0.2-2.4,1.2-3.8,1.5c-0.4,0.1-0.7-0.1-0.9-0.4l-1.9-3.5
			c-0.2-0.3-0.1-0.6,0.2-0.8c3.9-3.4,12.1-3.4,16.3-2c3.2,1,4.8,3.4,5,7.1c0.3,6.6,0.3,13.1,0.3,19.7c0,0.4-0.3,0.7-0.7,0.7H53
			c-0.4,0-0.6-0.2-0.7-0.5l-0.2-0.7C52.1,414.7,51.9,414.6,51.6,414.8"/>
		<path class="st5" d="M191.7,408.8c0.3,4,12.1,4.4,10.5-3.6c-0.1-0.3-0.2-0.5-0.5-0.5C197.8,404.6,191.4,403.8,191.7,408.8z
			 M201.9,414.7c-6.2,4.8-17.8,2.4-16.6-7.6c1-8.3,10.1-7.6,16.4-7.4c0.2,0,0.4-0.1,0.5-0.3c1.7-7.3-8-6.3-11.5-4.2
			c-0.9,0.6-1.6,0.4-2.1-0.6l-1.4-2.6c-0.5-1-0.3-1.6,0.7-2.1c5.1-2.3,10.2-2.7,15.1-1.2c4.6,1.4,5.5,4.7,5.5,9.4
			c0,5.9,0,11.8,0,17.7c0,0.3-0.2,0.5-0.5,0.5l-4.7,0c-0.4,0-0.6-0.2-0.7-0.5l-0.2-0.9C202.3,414.6,202.2,414.5,201.9,414.7"/>
		<path class="st5" d="M228.6,394c-7.3-1.6-7.6,8.5-6.2,13.1c0.9,3.1,3.4,4.4,6.4,3.7c1.4-0.3,2.5-1.5,3.9-2.3
			c0.3-0.2,0.6-0.1,0.9,0.1l3.2,2.8c0.4,0.4,0.5,1,0.1,1.5c-2.7,3.1-6.5,4.4-10.7,4c-7.1-0.6-10.7-4.9-11-13
			c-0.3-7.5,1.2-14.5,9.6-15.9c4.4-0.7,8.4,0.4,11.9,3.5c0.6,0.5,0.6,1.5,0,2l-3.1,2.7c-0.3,0.2-0.6,0.3-0.9,0.1
			C231.2,395.4,230.3,394.3,228.6,394z"/>
		<path class="st5" d="M399.8,411.1c4.5,1.2,9.4,0,8.5-5.8c0-0.3-0.2-0.5-0.5-0.5c-3.7-0.3-11.1-1.1-9.8,4.7
			C398.2,410.3,398.8,410.8,399.8,411.1z M407.8,414.8c-5.7,4-16.2,2.8-16.6-5.5c-0.4-9.6,8.4-9.9,15.2-9.5c1.7,0.1,2.3-0.7,1.8-2.3
			l-0.2-0.6c-0.5-1.6-1.5-2.6-3.2-3c-2.9-0.6-5.6-0.2-8.2,1.1c-1,0.6-1.8,0.3-2.4-0.7l-1.2-2.1c-0.6-1.1-0.3-1.9,0.8-2.4
			c4.9-2.2,9.8-2.6,14.8-1.2c4.8,1.3,5.6,5,5.6,9.8c0.1,5.8,0.1,11.5,0,17.3c0,0.3-0.2,0.5-0.5,0.5h-4.9c-0.4,0-0.7-0.2-0.7-0.6
			l-0.1-0.7C408.3,414.7,408.1,414.6,407.8,414.8"/>
		<path class="st5" d="M429.6,390.2c8.5-5.4,16.6-1,16.6,9c0,5.5,0,10.9,0,16.3c0,0.5-0.3,0.8-0.8,0.8l-5.2,0
			c-0.5,0-0.8-0.3-0.8-0.8c0-4.8,0-9.6,0-14.5c0-4-1.2-7.8-6-7c-2.6,0.4-3.9,2.1-4,5c-0.2,5.6-0.3,11.1-0.3,16.6
			c0,0.5-0.2,0.7-0.7,0.7l-5.1,0c-0.5,0-0.8-0.3-0.8-0.8V389c0-0.3,0.2-0.5,0.5-0.5l5.2-0.1c0.3,0,0.5,0.2,0.6,0.5l0.1,1
			C429.1,390.3,429.3,390.4,429.6,390.2z"/>
		<path class="st5" d="M469.2,405c-3.4-0.7-10.3-1.1-10.2,3.2c0.1,4.8,11.3,5.1,10.7-2.7C469.7,405.3,469.5,405.1,469.2,405z
			 M469.3,414.8c-4.7,3.3-13.8,3.4-16.1-3c-1.2-3.5-0.6-7.4,2.2-9.9c3.3-2.9,9.4-2.1,13.6-2.3c0.3,0,0.5-0.2,0.5-0.5
			c1.4-7.3-7.9-6.1-11.9-3.8c-0.6,0.3-1.1,0.2-1.4-0.4l-1.7-3c-0.4-0.6-0.2-1.1,0.4-1.5c5.8-4,20.5-4.4,20.9,5.4
			c0.3,6.6,0.4,13.3,0.3,19.9c0,0.4-0.2,0.5-0.6,0.5l-5,0c-0.4,0-0.8-0.3-0.8-0.7l0-0.5C469.7,414.7,469.6,414.6,469.3,414.8"/>
		<path class="st5" d="M494.2,409.9c3.1,0,5.6-3.6,5.6-8.1s-2.5-8.1-5.6-8.1s-5.6,3.6-5.6,8.1S491.1,409.9,494.2,409.9z
			 M499.3,413.3c-1.2,1-2.1,1.6-3,1.8c-12.6,3.2-14.8-7.4-14-16.8c0.5-5.1,3.4-9.8,8.9-10.4c3-0.3,5.7,0.5,8,2.3
			c0.3,0.2,0.5,0.2,0.5-0.2l0.2-0.9c0.1-0.4,0.3-0.6,0.7-0.6l5.1,0c0.3,0,0.5,0.2,0.5,0.5c0,9,0,18,0,27c0,6.7-4.6,10.7-11,11.3
			c-3.9,0.4-9.6-0.8-12-4.3c-0.2-0.3-0.2-0.7,0.1-0.9l3.3-3.3c0.3-0.3,0.6-0.3,0.8,0c5.4,4.5,12.9,3.4,12.3-5.2
			C499.7,413.1,499.6,413.1,499.3,413.3"/>
		<path class="st5" d="M520.1,399.8l10.2,0c0.3,0,0.6-0.2,0.6-0.5V399c0-2.9-2.3-5.3-5.2-5.3h-0.9c-2.9,0-5.2,2.4-5.2,5.3v0.2
			C519.6,399.5,519.8,399.8,520.1,399.8z M519.8,405.2c0.3,6.7,7.8,7,12.2,3.6c0.8-0.6,1.6-0.6,2.3,0.1l2,1.9
			c0.8,0.8,0.8,1.5-0.1,2.2c-5.2,4.4-10.8,5.3-16.8,2.8c-6.5-2.6-7-11.4-6.3-17.4c1-8.7,9.8-13,17.4-9.6c6.1,2.7,7.2,8.9,7,14.9
			c0,0.5-0.5,0.9-1,0.9h-16.3C519.9,404.7,519.8,404.9,519.8,405.2"/>
		<path class="st5" d="M551.4,390.2c4.7-3.2,9.7-3.3,13.9,0.8c0.2,0.2,0.5,0.2,0.7,0c6.8-5.6,18.4-3.7,18.5,6.7
			c0.1,6.1,0.1,12,0.1,17.8c0,0.5-0.2,0.7-0.7,0.7h-5.3c-0.4,0-0.7-0.3-0.7-0.7l-0.1-17.6c0-2.1-1.7-3.8-3.8-3.9l-1.4-0.1
			c-2.6-0.1-4.9,2-4.9,4.6l0,16.9c0,0.5-0.3,0.7-0.7,0.7l-5.3,0c-0.5,0-0.8-0.3-0.8-0.8c0.1-8.2,0.1-13.8,0-16.8
			c-0.2-6.7-10.1-6.4-10.2,0.5c0,5.5-0.1,11,0,16.3c0,0.5-0.2,0.7-0.7,0.7h-5c-0.5,0-0.8-0.3-0.8-0.8v-26.4c0-0.4,0.2-0.6,0.6-0.6
			l5.1-0.1c0.3,0,0.5,0.1,0.6,0.4l0.3,1.1C551,390.3,551.1,390.4,551.4,390.2z"/>
		<path class="st5" d="M598,399.8l10.3,0c0.3,0,0.5-0.2,0.5-0.5v-0.2c0-3-2.3-5.4-5.2-5.4h-0.8c-2.9,0-5.2,2.4-5.2,5.4v0.2
			C597.5,399.6,597.7,399.8,598,399.8z M599.2,404.7c-1.5,0-1.9,0.7-1.2,2l0.8,1.5c0.7,1.4,1.8,2.3,3.4,2.5c3.3,0.7,6.2-0.2,8.6-2.5
			c0.2-0.2,0.6-0.2,0.9,0l3.4,3c0.3,0.2,0.3,0.5,0.1,0.8c-0.8,1.2-1.8,2.1-3,2.8c-7.4,4.1-18.3,2.9-20.5-6.8
			c-2-8.7-0.1-19.7,10.9-20.2c10.9-0.5,13.3,7.3,13.1,16.2c0,0.3-0.3,0.5-0.5,0.5L599.2,404.7"/>
		<path class="st5" d="M629.7,390.2l0.5-0.5c0.2-0.2,0.4-0.3,0.6-0.4c5-2.6,11.8-1.4,14.1,4.1c0.6,1.3,0.8,3.5,0.9,6.5
			c0.1,5.3,0.1,10.7,0,15.9c0,0.3-0.2,0.5-0.5,0.5h-5.5c-0.4,0-0.5-0.2-0.5-0.5c0-5.5,0.6-12.3-0.4-17.9c-0.8-4.5-6.6-5.2-8.9-1.8
			c-0.6,0.9-0.9,2.5-1,4.7c0,4.9-0.1,9.8-0.1,14.6c0,0.7-0.3,1-1,1h-4.8c-0.7,0-1-0.3-1-1v-26.2c0-0.4,0.2-0.6,0.6-0.6l5.3-0.1
			c0.3,0,0.5,0.2,0.6,0.5l0.3,1.1C629.1,390.5,629.3,390.5,629.7,390.2z"/>
		<path class="st5" d="M736,408.1c0.1-1.2-0.8-2.3-2-2.5c-6.1-0.9-14.1-0.6-13.7-9.5c0.5-10.3,14.3-9.5,20.5-5.5
			c1,0.6,1.1,1.4,0.4,2.3l-1.6,2c-0.7,0.9-1.6,1.1-2.6,0.5c-2.4-1.5-5.1-2.1-7.9-1.8c-1.4,0.1-2.1,0.9-2.1,2.2l0,0.7
			c-0.1,1,0.6,1.8,1.6,2c6.5,1.2,15.1,0.6,14.2,10.2c-0.4,3.9-2.6,6.4-6.5,7.5c-6.2,1.7-11.7,0.7-16.5-3c-0.7-0.6-0.8-1.2-0.2-1.9
			l2-2.4c0.6-0.7,1.3-0.8,2.1-0.4C726.1,410,735.6,414.3,736,408.1z"/>
		<path class="st5" d="M755.6,397.2c0.2,0.8,0.9,1.4,1.7,1.5c3.2,0.5,7.4,0.6,10,1.9c5,2.6,5.1,10.2,1,13.8
			c-5.2,4.4-16.2,3.1-20.8-2c-0.2-0.3-0.2-0.6,0-0.9l3-3.1c0.5-0.5,1.2-0.5,1.7-0.1c3,2.5,6.4,3.4,10.2,2.6c2.2-0.4,3.3-4.7-0.3-5.2
			c-6-0.9-13.5-0.8-13.4-9.2c0.1-10.8,14.6-9.8,20.9-5.6c0.7,0.5,0.8,1.1,0.3,1.7l-2.1,2.6c-0.6,0.7-1.2,0.8-2,0.3
			C763.3,394,753.9,391.4,755.6,397.2z"/>
		<path class="st5" d="M794.1,399.2c0-2.8-2.3-5.1-5.1-5.1h-0.7c-2.8,0-5.1,2.3-5.1,5.1v6.6c0,2.8,2.3,5.1,5.1,5.1h0.7
			c2.8,0,5.1-2.3,5.1-5.1V399.2z M800.9,405.6c0,6.2-5.1,11.3-11.3,11.3h-2c-6.2,0-11.3-5.1-11.3-11.3v-6.3
			c0-6.2,5.1-11.3,11.3-11.3h2c6.2,0,11.3,5.1,11.3,11.3V405.6"/>
		<path class="st5" d="M820.2,394.2c-12-3.4-8.8,25.9,3.2,14.3c0.2-0.2,0.6-0.2,0.9,0l3.6,3.1c0.3,0.3,0.4,0.6,0.2,0.9
			c-2.4,4.5-9.8,5.2-14,3.9c-4.8-1.5-7-5.1-7.8-10.1c-1-6.7,0-15,7.5-17.5c4.8-1.6,9.3-0.8,13.7,2.4c0.9,0.6,0.9,1.9,0.1,2.6
			l-2.9,2.5c-0.3,0.3-0.7,0.3-1,0.1C822.4,395.6,821.5,394.6,820.2,394.2z"/>
		<path class="st5" d="M854.6,408.2c-0.2,4.7,11.4,5.4,10.7-2.9c0-0.3-0.2-0.5-0.6-0.6C861.7,404.6,854.8,403.7,854.6,408.2z
			 M864.9,414.8c-6.2,4.2-17,2.8-16.6-6.9c0.3-9.2,9.6-8.2,16.3-8.2c0.3,0,0.5-0.2,0.6-0.5c1.4-7-7.7-6.3-11.2-4.2
			c-1.1,0.7-1.9,0.4-2.5-0.7l-1.2-2.1c-0.6-1.1-0.3-2,0.9-2.5c6.4-2.8,19.8-4.1,20.2,6.1c0.3,6.6,0.4,13.2,0.3,19.8
			c0,0.3-0.2,0.5-0.5,0.5h-5c-0.5,0-0.8-0.3-0.8-0.7l0-0.5C865.3,414.7,865.2,414.6,864.9,414.8"/>
		<path class="st5" d="M928.8,399.1c0-2.8-2.2-5-5-5.1l-0.7,0c-2.8,0-5.1,2.3-5.1,5l0,6.8c0,2.8,2.2,5,5,5.1l0.7,0
			c2.8,0,5.1-2.3,5.1-5L928.8,399.1z M935.6,405.7c0,6.2-5,11.2-11.2,11.2h-2c-6.2,0-11.2-5-11.2-11.2v-6.5c0-6.2,5-11.2,11.2-11.2
			h2c6.2,0,11.2,5,11.2,11.2V405.7"/>
		<path class="st5" d="M949.6,390.3c4.6-4,12.5-2.9,15.3,2.8c0.6,1.4,1,3.6,1,6.6c0.1,5.4,0.1,10.7,0,15.9c0,0.5-0.2,0.7-0.7,0.7
			l-5.3,0c-0.4,0-0.8-0.3-0.8-0.8c0-4.8,0-9.6,0-14.5c0-4.2-1.2-8.1-6.3-7c-2.5,0.5-3.7,2.3-3.8,5.3c-0.2,5.7-0.2,11.1-0.1,16.4
			c0,0.3-0.2,0.5-0.5,0.5H943c-0.3,0-0.5-0.2-0.5-0.5v-26.5c0-0.4,0.3-0.7,0.7-0.7l4.8-0.1c0.4,0,0.8,0.3,0.8,0.7l0.1,0.9
			C949,390.5,949.3,390.6,949.6,390.3z"/>
		<path class="st5" d="M82.5,414.4c-2.9,2.7-6.2,3.5-10,2.3c-5.4-1.7-6.4-6.1-6.4-11.6c0-5.3,0-10.6,0-15.8c0-0.5,0.3-0.7,0.7-0.7
			l5,0c0.5,0,0.8,0.3,0.8,0.8c0,4.8,0,9.7-0.1,14.8c0,2.1,0.4,3.9,1.3,5.3c2,3.2,7,1.8,8.3-1c0.4-0.9,0.7-2.7,0.7-5.3
			c0.1-4.5,0.1-9,0-13.4c0-0.6,0.5-1.1,1-1h4.5c0.6,0,1,0.5,1,1v26.3c0,0.3-0.2,0.5-0.5,0.5l-5.3,0c-0.4,0-0.6-0.2-0.6-0.6l0-1.2
			C82.8,414.2,82.7,414.1,82.5,414.4z"/>
		<path class="st5" d="M135.4,415.4c0,0.5-0.4,0.9-0.9,0.9h-5c-0.5,0-0.9-0.4-0.9-0.9v-26c0-0.5,0.4-0.9,0.9-0.9h5
			c0.5,0,0.9,0.4,0.9,0.9V415.4z"/>
		<path class="st5" d="M250.3,415.6c0,0.4-0.3,0.7-0.7,0.7h-5.4c-0.4,0-0.7-0.3-0.7-0.7v-26.4c0-0.4,0.3-0.7,0.7-0.7h5.4
			c0.4,0,0.7,0.3,0.7,0.7V415.6z"/>
		<path class="st5" d="M281.6,415.6c0,0.4-0.3,0.7-0.7,0.7h-5.1c-0.4,0-0.7-0.3-0.7-0.7v-26.4c0-0.4,0.3-0.7,0.7-0.7h5.1
			c0.4,0,0.7,0.3,0.7,0.7V415.6z"/>
		<path class="st5" d="M318.6,405.7l5.4-16c0.3-0.9,0.9-1.3,1.8-1.3l4.1,0c1,0,1.3,0.5,1,1.4c-3.6,10-7.3,19.9-10.9,29.8
			c-1.9,5.2-5.4,7.6-10.5,7.1c-0.6-0.1-0.9-0.4-0.9-0.9l-0.1-4.1c0-0.6,0.3-0.9,0.9-0.9c2.7,0,4.4-1.2,5.1-3.7
			c0.4-1.4,0.2-3.1-0.7-5.2c-2.8-7.2-5.7-14.6-8.6-22.4c-0.2-0.6,0.2-1.1,0.8-1.1l5,0c0.5,0,1,0.3,1.2,0.8l5.6,16.4
			C318,406.5,318.3,406.5,318.6,405.7z"/>
		<path class="st5" d="M841.3,415.6c0,0.4-0.3,0.7-0.7,0.7h-5.1c-0.4,0-0.7-0.3-0.7-0.7v-26.4c0-0.4,0.3-0.7,0.7-0.7h5.1
			c0.4,0,0.7,0.3,0.7,0.7V415.6z"/>
		<path class="st5" d="M904.4,415.6c0,0.4-0.3,0.7-0.7,0.7h-5.1c-0.4,0-0.7-0.3-0.7-0.7v-26.4c0-0.4,0.3-0.7,0.7-0.7h5.1
			c0.4,0,0.7,0.3,0.7,0.7V415.6z"/>
	</g>
</g>
</svg>
