<?xml version="1.0" encoding="utf-8"?>
<!-- Generator: Adobe Illustrator 24.3.0, SVG Export Plug-In . SVG Version: 6.00 Build 0)  -->
<svg version="1.1" id="Layer_1" xmlns="http://www.w3.org/2000/svg" xmlns:xlink="http://www.w3.org/1999/xlink" x="0px" y="0px"
	 viewBox="0 0 942.3 231.6" style="enable-background:new 0 0 942.3 231.6;" xml:space="preserve">
<style type="text/css">
	.st0{fill:#DDB207;}
	.st1{fill:#404544;}
</style>
<g>
	<g>
		<path class="st0" d="M941,192.5c-1-2.8-2-4.3-3.1-4.3c-0.3,0-0.8,0.5-1.1,1.7c-2.3,6.9-3.4,10.6-3.4,11.3c0,0.4,0.4,1.2,1.5,2.2
			c1,1,1.5,1.6,1.5,2c-1.2,2-3.5,2.8-7.1,2.8c-3,0-5.6-1-7.9-3c-2.2-1.7-3.3-3.6-3.3-5.6c0,0.4,0.4-1.6,1.5-6.1
			c0.2-0.7,0.2-1.2,0.2-1.6c0-1.2-0.3-1.7-1.1-1.7c-0.7,0-1.4,0.5-2.4,1.6c-2.7,4.2-5.5,8.4-8.2,12.6c-4.3,5.5-9.7,8.3-16.4,8.3
			c-4.6,0-8.3-1-11.1-3c-3.1-2-4.6-4.8-4.6-8.5c0-1.6,0.3-3.4,1-5.4c0.6-2,0.2-2.8-1.2-2.8c-0.9,0-1.9,0.4-3,1.4
			c-8.2,8.3-13.6,13.3-15.8,15c-5.9,4-12.8,6.1-20.6,6.1c-3.9,0-6.8-0.5-8.7-1.8c-3.7-2.3-6.1-7.2-7.4-14.7
			c-0.3-2-0.7-11.8-1.3-29.4c13.2-12.3,24.9-18.5,35.2-18.5c6.2,0,10.9,2.8,14,8.3c0.6,1.2,1.1,1.8,1.3,1.8c0.2,0,0.7-0.5,1.2-1.8
			c1.4-3.3,2.1-7,2.1-11.3c0-3.5-1.4-6.6-4.5-9.1c-3.1-2.6-6.8-3.9-11-3.9c-11.6,0-24.6,6.3-38.7,19c0-0.2,0-0.3,0-0.5
			c-0.3-9.9-0.5-18.7-0.8-26.3c2.6-1.1,5.3-2.2,8-3.5c15.1-7.1,27.8-15.1,37.8-24.2c6.1-5.8,9.3-12.7,9.3-20.7c0-5-1.5-8.6-4.4-10.8
			c-2.8-2.2-9-4.4-18.1-6.3c-15.7-3.3-23.6-7.2-23.6-11.6c0-1.3,1.3-4.3,4.1-8.9c2.7-4.6,6-8.7,9.7-12.8c7.8-8.5,14-12.8,18.7-12.8
			c2.7,0,4.9,1.8,6.2,5.1c0.8,2,1.4,3,2,2.8c0.7,0.1,1.5-1,2.7-3.1c1.3-2.1,1.9-5,1.9-8.8c0-3.4-0.9-6.2-2.6-8.5
			c-1.7-2.4-3.9-3.5-6.7-3.5c-3.9,0-9.1,2.7-15.6,8.2c-6.4,5.5-12.1,12.6-17.2,21.1c-6.3,10.7-9.4,20.9-9.4,30.5
			c0,5,2.2,8.9,6.7,11.7c3,1.9,7.9,3.6,14.5,5c5.4,1.3,10.8,2.6,16.2,3.7c5,1.4,7.5,3,7.5,4.5c0,1.3-4.5,4.7-13.4,10.3
			c-10.1,6.3-20.3,11.7-30.9,16.1c-1.4,0.6-2.8,1.1-4.1,1.6c-0.4-7.6-0.9-13.6-1.3-17.7c-2.6-24.5-6.3-36.6-11.4-36.6
			c-2.4,0-4.9,2.9-7.3,8.7c-2.3,5.6-3.8,11.6-4.6,18.3c-0.1,1.7,0,2.6,0.5,2.6c0.4,0,1-0.8,1.5-2.2c3.2-8.5,5.5-12.8,6.9-12.8
			c1,0,2.1,2.5,3.4,7.4c1.5,5.9,2.8,13.8,3.8,23.8c0.3,2.3,0.5,6,0.8,11c-8.6,2.7-16.2,4-22.8,4c-12.1,0-21-3.9-26.8-11.6
			c-4.5-5.9-6.7-13.1-6.7-21.6c0-9.5,3.3-21.4,9.9-35.6c0.9-2.2,1.4-3.7,1.4-4.6c0-0.3-0.1-0.5-0.3-0.5c-0.7,0-1.9,1.4-3.5,4
			c-8.5,13.1-12.8,28.6-12.8,46.4c0,11.1,2.6,20.1,8,27.1c6.2,8.2,15.7,12.3,28.3,12.3c7.6,0,16.2-1.7,25.9-4.9
			c0.3,8,0.6,17.7,1,29.1c0,0.7,0,1.4,0.1,2c-1.4,1.4-2.8,2.9-4.1,4.4c-12.9,13.9-19.8,21.3-20.5,22.2c-7.8,7.1-14.4,10.7-20.3,10.7
			c-3.7,0-6.6-1.4-8.7-4.2c-2-2.5-3-5.8-3-10.1c0-5.5,1.9-13,5.4-22.4c3.5-9.5,5.2-15.1,5.2-16.6c0-0.4-0.1-0.6-0.3-0.6
			c-0.4,0-1.1,0.8-2,2.5c-8.1,15.8-12.1,28.6-12.1,38.6c0,7.1,2.1,13.1,6.2,18.1c3.9,4.7,8.5,7.1,13.8,7.1c6.3,0,13-3.6,20.1-10.9
			c7-7.7,14-15.3,21-22.9c0.7,17.1,1.5,27.7,2.2,32.1c1.5,9.1,4.7,15.4,9.2,18.7c3.2,2.4,7.7,3.6,13.4,3.6c7.4,0,14.6-3,21.4-8.7
			c1.5-1.3,5-5.1,10.4-11.4c0.8-1,1.6-1.4,2.5-1.4c0.4,0,0.8,0.2,0.8,0.9c0.2,5.1,1.2,9,2.8,11.6c2.7,4.1,7.5,6.2,14.5,6.2
			c9.3,0,16.7-5.1,22.4-15.4c3.9,6.9,8.1,10.3,12.6,10.3c6.3,0,11.1-2.8,14.4-8.5c2.6-4.6,3.9-10.3,3.9-16.9
			C942.3,196.9,941.9,195,941,192.5"/>
		<path class="st0" d="M781.2,33.9c1.4,1.4,2.6,2.1,3.5,2.1c0.9,0,1.3-0.2,1.4-0.5c0.2-0.4,0.5-0.5,1.2-0.5c0.9,0,2.3,2.5,4.3,7.5
			c2.1,5.1,3.1,8.5,3.1,10.3c0,1.1,0.2,1.7,0.7,1.7c0.4,0,1.1-0.6,1.7-1.9c1-1.9,1.9-4.9,2.6-9.3c1.9-10.1,3.8-15.1,5.9-15.1
			c1,0,2,0.5,2.8,1.6c0.9,1.1,1.5,1.7,1.7,1.7c0.7,0,1.2-0.8,1.8-2.3c0.3-1.1,0.5-2,0.5-2.7c0-0.9-0.5-2.1-1.6-3.5
			c-1.2-1.6-2.4-2.4-3.7-2.4c-2.4,0-4.6,2.4-6.6,7.2c-2,6.8-3.1,11.9-3.6,15.3c-0.2,0.6-0.3,1-0.3,1.1c-0.1,0.1-0.2,0.1-0.3,0
			c0.1-0.1,0-0.4-0.1-1.1c-1-5.7-2.6-10.3-5-13.9c-2.3-3.5-5-5.2-8-5.2c-0.3,0-1.1,1-2.4,3.1c-1.2,2.1-1.7,3.3-1.7,3.6
			C779,31.5,779.6,32.6,781.2,33.9"/>
		<path class="st0" d="M883.2,176.8c1.4,1.4,2.6,2.1,3.5,2.1c0.9,0,1.3-0.2,1.4-0.5c0.2-0.4,0.5-0.5,1.2-0.5c0.9,0,2.3,2.5,4.3,7.5
			c2.1,5.1,3.1,8.5,3.1,10.3c0,1.1,0.2,1.7,0.7,1.7c0.4,0,1.1-0.6,1.7-1.9c1-1.9,1.9-4.9,2.6-9.3c1.9-10.1,3.8-15.1,5.9-15.1
			c1,0,2,0.5,2.8,1.6c0.9,1.1,1.5,1.7,1.7,1.7c0.7,0,1.2-0.8,1.8-2.3c0.3-1.1,0.5-2,0.5-2.7c0-0.9-0.5-2.1-1.6-3.5
			c-1.2-1.6-2.4-2.4-3.7-2.4c-2.4,0-4.6,2.4-6.6,7.2c-2,6.8-3.1,11.9-3.6,15.3c-0.2,0.6-0.3,1-0.3,1.1c-0.1,0.1-0.2,0.1-0.3,0
			c0.1-0.1,0-0.4-0.1-1.1c-1-5.7-2.6-10.3-5-13.9c-2.3-3.5-5-5.2-8-5.2c-0.3,0-1.1,1-2.4,3.1c-1.2,2.1-1.7,3.3-1.7,3.6
			C881,174.4,881.7,175.5,883.2,176.8"/>
		<path class="st0" d="M774.8,92.2c3.3,0,5.6-3.9,7.1-11.8v-0.8c0-0.2-0.1-0.2-0.3-0.1c-0.1,0.2-0.3,0.4-0.4,0.6
			c-1.8,3.4-3.4,5-4.7,5c-2.4,0-3.6-2.3-3.6-6.7c0-3.2,1.3-8.9,3.9-16.9c0.7-1.7,0.9-2.8,0.9-3.3c-0.2,0-0.9,1-1.9,2.9
			c-4.2,7.8-6.1,15.2-6.1,22.3C769.6,89.2,771.3,92.2,774.8,92.2"/>
		<path class="st0" d="M843.6,163.6c-0.2,0-0.9,1-1.9,3c-4.2,7.8-6.1,15.2-6.1,22.3c0,5.7,1.6,8.6,5.1,8.6c3.3,0,5.6-3.9,7.1-11.8
			v-0.8c0-0.2-0.1-0.2-0.3-0.1c-0.1,0.2-0.3,0.4-0.4,0.7c-1.8,3.4-3.4,5-4.7,5c-2.4,0-3.6-2.3-3.6-6.7c0-3.2,1.3-8.9,3.9-16.9
			C843.4,165.1,843.6,164,843.6,163.6"/>
		<path class="st0" d="M858.7,26.8c1.2-1.5,1.7-2.4,1.8-2.9c-0.2-0.1-1.1,0.7-2.7,2.3c-6.3,6.2-10.4,12.7-12.5,19.4
			c-1.7,5.4-1,8.7,2.3,9.8c3.1,1,6.5-2.1,10.3-9.1c0.1-0.3,0.2-0.6,0.2-0.7c0.1-0.2,0-0.2-0.3-0.2c-0.2,0.2-0.4,0.3-0.6,0.5
			c-2.7,2.7-4.7,3.8-6,3.4c-2.3-0.7-2.8-3.3-1.4-7.4C850.8,38.8,853.8,33.8,858.7,26.8"/>
		<path class="st0" d="M775.6,153.9c2,0.5,3.9,0.2,5.8-0.8c1.8-1,3-2.5,3.6-4.6c0.5-2,0.2-3.9-0.8-5.8c-1.1-1.9-2.6-3-4.6-3.5
			c-2-0.5-3.9-0.4-5.6,0.8c-1.9,1.1-3,2.6-3.5,4.6c-0.6,2.1-0.4,4,0.7,5.7C772,152.2,773.5,153.3,775.6,153.9"/>
		<path class="st0" d="M792.7,158.4c2,0.5,3.9,0.2,5.7-0.9c1.8-1,3-2.5,3.6-4.6c0.5-2,0.2-3.9-0.8-5.8c-1-1.8-2.5-2.9-4.5-3.5
			c-2-0.5-3.9-0.4-5.7,0.7c-1.9,1.1-3,2.6-3.5,4.6c-0.6,2.1-0.4,4,0.7,5.7C789.2,156.7,790.7,157.9,792.7,158.4"/>
	</g>
	<g>
		<path class="st1" d="M38,67.4h8.3v29.4c0,1.3-0.6,2-1.8,2H21.9c-5.6,0-10-1.5-13.2-4.4c-4.1-3.7-6.2-8.3-6.3-13.8
			c0-4.7,1-8.8,2.9-12.3l7.5,3.8c-1.3,2.6-2,5.3-2,8.2c0,7.2,3.7,10.8,11.2,10.9H38V67.4z M18.5,62.8c-1.3,0-2.5-0.5-3.5-1.4
			c-1-0.9-1.4-2.1-1.4-3.4c0-1.4,0.5-2.5,1.4-3.5c1-0.9,2.1-1.4,3.5-1.4c1.3,0,2.5,0.5,3.4,1.4c0.9,0.9,1.4,2.1,1.4,3.5
			c0,1.3-0.5,2.5-1.4,3.4C21,62.3,19.8,62.8,18.5,62.8 M29.7,62.8c-1.3,0-2.5-0.5-3.4-1.4c-1-0.9-1.5-2.1-1.5-3.4
			c0-1.4,0.5-2.5,1.5-3.5c1-0.9,2.1-1.4,3.4-1.4c1.3,0,2.5,0.5,3.4,1.4c0.9,0.9,1.4,2.1,1.4,3.5c0,1.3-0.5,2.5-1.4,3.4
			C32.2,62.3,31,62.8,29.7,62.8 M60.9,98.7h-8.4V50.6h8.4V98.7z M83.2,99.5c0,9.5-5.2,14.3-15.5,14.3h-4.4V106h3.6
			c5.2,0,7.9-2.5,7.9-7.4V67.4h8.4V91h5.4v7.7h-5.4V99.5z M119.8,98.7c-2.2,1.9-5.1,2.9-8.6,3c-6.1,0-10.8-2.3-13.9-6.8
			c-1.3,2.5-3.6,3.8-6.7,3.8h-4.4V91H90c3,0,4.5-2.4,4.6-7v-1.2c0-5.6,1.3-9.9,3.9-13c2.6-3.1,6.3-4.7,11.3-4.7
			c4.8,0,8.7,1.6,11.5,4.9c2.8,3.2,4.3,7.9,4.3,13.9c0,2.7-0.3,5.1-0.9,7.3h6.1v7.7H119.8z M102.5,83.3c0,7.4,2.6,11.1,7.7,11.1
			c4.9,0,7.4-3.4,7.4-10.1c0-8-2.6-11.9-7.7-11.9C104.9,72.4,102.5,76.1,102.5,83.3 M129.6,98.7V91h9.4c1.2,0,1.8-0.8,1.8-2.3V67.4
			h8.4v20.3c-0.1,7.3-2.9,11-8.2,11H129.6z M134.6,62.8c-1.3,0-2.5-0.5-3.5-1.4c-1-0.9-1.4-2.1-1.4-3.4c0-1.4,0.5-2.5,1.4-3.5
			c1-0.9,2.1-1.4,3.5-1.4c1.3,0,2.5,0.5,3.4,1.4c0.9,0.9,1.4,2.1,1.4,3.5c0,1.3-0.5,2.5-1.4,3.4C137.1,62.3,135.9,62.8,134.6,62.8
			 M145.8,62.8c-1.3,0-2.5-0.5-3.4-1.4c-1-0.9-1.5-2.1-1.5-3.4c0-1.4,0.5-2.5,1.5-3.5c1-0.9,2.1-1.4,3.4-1.4s2.5,0.5,3.4,1.4
			c0.9,0.9,1.4,2.1,1.4,3.5c0,1.3-0.5,2.5-1.4,3.4C148.3,62.3,147.1,62.8,145.8,62.8 M185.8,98.7c-0.3,10-5.3,15-15.1,15.1h-5.2V106
			h4.8c4.8,0,7.4-2.5,7.7-7.3c-7.4,0-12.4-1-15.2-3.1c-4.9-3.5-7.4-8.2-7.4-14.1c0-6,2.2-10.8,6.7-14.4c3.1-2.4,6.7-3.6,10.7-3.6
			c4.7,0,9.1,1.4,13.1,4.1V91h5.3v7.7H185.8z M165.9,60.6c-3.4,0.5-6.3,1.3-8.8,2.3l-0.5-3.3l1.9-0.9c-1.5-1.1-2.2-2.4-2.2-4
			c0-2.1,0.9-3.7,2.8-4.7c0.7-0.3,1.5-0.5,2.6-0.5c1.2,0,2.3,0.3,3.4,0.8l-0.6,3.1c-0.7-0.2-1.2-0.3-1.8-0.3c-1.6,0-2.4,0.7-2.4,2.2
			c0,1.4,1.3,2.2,3.6,2.4c0.7,0,1.4,0,2.1-0.2L165.9,60.6z M177.3,91V72.1c-1.5-1-3.2-1.5-5-1.5c-2.1,0-3.9,0.8-5.4,2.2
			c-2.1,2.3-3.1,5-3.1,8.2c0,6.6,3.8,10,11.4,10H177.3z M222.4,98.7c-2.2,1.9-5.1,2.9-8.6,3c-6.1,0-10.8-2.3-13.9-6.8
			c-1.3,2.5-3.6,3.8-6.7,3.8h-4.4V91h3.8c3,0,4.5-2.4,4.6-7v-1.2c0-5.6,1.3-9.9,3.9-13c2.6-3.1,6.3-4.7,11.3-4.7
			c4.9,0,8.7,1.6,11.5,4.9c2.8,3.2,4.2,7.9,4.2,13.9c0,2.7-0.3,5.1-0.9,7.3h6.1v7.7H222.4z M205,83.3c0,7.4,2.6,11.1,7.7,11.1
			c4.9,0,7.4-3.4,7.4-10.1c0-8-2.6-11.9-7.7-11.9C207.4,72.4,205,76.1,205,83.3 M232.1,91h0.7c3.1,0,4.7-2.3,4.7-6.9V50.6h8.4v32.9
			c0,4-0.9,7.4-2.7,10.2c-2.2,3.4-5.6,5.1-10.3,5.1h-0.8V91z M260.6,98.7h-8.4V50.6h8.4V98.7z M297.2,98.5
			c-0.2,10.1-5.2,15.2-15.1,15.2h-5.2V106h4.7c4.9,0,7.4-2.5,7.7-7.3h-1.8c-6.2,0-10.7-1.1-13.4-3.1c-4.9-3.5-7.4-8.2-7.4-14.1
			c0-6,2.2-10.8,6.7-14.4c3.1-2.4,6.7-3.6,10.6-3.6c4.7,0,9.1,1.4,13.1,4.1V98.5z M288.8,91V72.1c-1.5-1-3.2-1.5-5-1.5
			c-2.2,0-3.9,0.8-5.4,2.2c-2.1,2.3-3.1,5-3.1,8.2c0,6.6,3.8,10,11.4,10H288.8z M353.3,98.7c-0.2,10-5.4,15.1-15.5,15.1h-3.5
			c-5.6,0-10-1.4-13.2-4.4c-4.1-3.7-6.2-8.3-6.3-13.8c0.1-7.3,2.4-13.2,6.9-17.4l6.5,4.7c-3.3,3.8-5,7.9-5,12.4
			c0,7.1,3.7,10.7,11.2,10.8h3.1c4.9,0,7.4-2.2,7.4-6.5V67.4h8.4v6.3c2.3-3.3,5.1-5.9,8.3-7.8c2.7-1.6,5.6-2.4,8.6-2.4
			c5.6,0,10.1,2.4,13.6,7.1c2.8,4,4.2,8.2,4.2,12.5c0,2.4-0.3,5-0.8,7.9l-1.5,7.7H353.3z M356.3,61.2c-1.3,0-2.5-0.5-3.4-1.4
			c-1-0.9-1.5-2.1-1.5-3.4c0-1.4,0.5-2.5,1.5-3.5c1-0.9,2.1-1.4,3.4-1.4c1.3,0,2.5,0.5,3.4,1.4c0.9,0.9,1.4,2.1,1.4,3.5
			c0,1.3-0.5,2.5-1.4,3.4S357.6,61.2,356.3,61.2 M378.4,91c0.8-2.6,1.2-5,1.2-7.2c0-2.9-0.6-5.3-1.8-7.4c-1.8-3.4-4.4-5.1-7.9-5.2
			c-3.4,0-6.7,1.5-9.9,4.6c-2.3,2.2-4.4,5.1-6.2,8.7c-0.6,1.2-0.8,1.9-0.8,2.4V91H378.4z M410.3,99.5c0,9.5-5.2,14.3-15.5,14.3h-4.4
			V106h3.6c5.2,0,7.9-2.5,7.9-7.4V67.4h8.4V99.5z M431.8,98.7H425c-5.3,0-8-3.7-8.2-11V50.6h8.4v38.1c0,1.5,0.6,2.3,1.8,2.3h4.8
			V98.7z M474.7,98.7h-42.9V91h11.1l-9-9.6l0.6-1.8c2.4-7.3,6.3-12.3,11.7-14.8c2.2-1,4.3-1.5,6.4-1.5c1.6,0,3.3,0.3,5,0.8
			c4.6,1.5,7.9,4.3,10,8.6c1.2,2.4,1.8,4.9,1.8,7.4c0,3.9-1.3,7.5-3.9,10.8h9.2V98.7z M452.2,90.9c2.2-0.3,4.1-1.2,5.8-3
			c2.3-2.3,3.4-5,3.4-8.1c0-4.7-2-7.7-5.9-9.1c-0.9-0.3-1.8-0.5-2.7-0.5c-1.1,0-2.1,0.2-3.1,0.7c-3,1.4-5.4,4.5-7,9.1L452.2,90.9z
			 M506,98.7c-2.2,1.9-5.1,2.9-8.6,3c-6.1,0-10.8-2.3-13.9-6.8c-1.3,2.5-3.6,3.8-6.7,3.8h-4.4V91h3.8c3,0,4.5-2.4,4.6-7v-1.2
			c0-5.6,1.3-9.9,3.9-13c2.6-3.1,6.3-4.7,11.3-4.7c4.9,0,8.7,1.6,11.5,4.9c2.8,3.2,4.3,7.9,4.3,13.9c0,2.7-0.3,5.1-0.9,7.3h6.1v7.7
			H506z M488.6,83.3c0,7.4,2.6,11.1,7.7,11.1c4.9,0,7.4-3.4,7.4-10.1c0-8-2.6-11.9-7.7-11.9C491.1,72.4,488.6,76.1,488.6,83.3
			 M533.6,98.7h-17.9V91h4.2V50.6h8.4V91h5.2V98.7z M532.4,91h0.7c3.1,0,4.7-2.3,4.7-6.9V50.6h8.4v32.9c0,4-0.9,7.4-2.7,10.2
			c-2.2,3.4-5.6,5.1-10.3,5.1h-0.8V91z M583.5,106c-5.6,0-10-1.4-13.2-4.4c-4.1-3.7-6.2-8.3-6.3-13.8c0.1-7.3,2.4-13.2,6.9-17.4
			l6.5,4.7c-3.3,3.8-5,7.9-5,12.5c0,7.1,3.7,10.7,11.2,10.7h8.7V68.4c3.7-1.1,7.9-1.6,12.6-1.6c9.2,0.2,13.9,5.3,13.9,15.4l0.1,8.9
			h-8.4v-8.6c0-5.9-1.8-8.8-5.5-8.8c-1.6,0-3,0.3-4.1,0.8l-0.2,29.6c0,1.3-0.6,2-1.8,2L583.5,106z M580.2,120
			c-1.3,0-2.5-0.5-3.5-1.4c-1-0.9-1.4-2.1-1.4-3.4c0-1.4,0.5-2.5,1.4-3.5c1-0.9,2.1-1.4,3.5-1.4c1.3,0,2.5,0.5,3.4,1.4
			c0.9,0.9,1.4,2.1,1.4,3.5c0,1.3-0.5,2.5-1.4,3.4C582.7,119.6,581.5,120,580.2,120 M591.4,120c-1.3,0-2.5-0.5-3.4-1.4
			c-1-0.9-1.5-2.1-1.5-3.4c0-1.4,0.5-2.5,1.5-3.5c1-0.9,2.1-1.4,3.4-1.4c1.3,0,2.5,0.5,3.4,1.4c0.9,0.9,1.4,2.1,1.4,3.5
			c0,1.3-0.5,2.5-1.4,3.4S592.7,120,591.4,120 M640.9,99.5c0,9.5-5.2,14.3-15.5,14.3H621V106h3.6c5.3,0,7.9-2.5,7.9-7.4V67.4h8.4
			V99.5z M662.4,98.7h-6.8c-5.3,0-8-3.7-8.2-11V50.6h8.4v38.1c0,1.5,0.6,2.3,1.8,2.3h4.8V98.7z M671.8,91V72.7h8.4V91h4.4
			c2,0,3.3-0.2,4.1-0.6c1.5-0.9,2.2-3.1,2.2-6.7V69.7h8.4v14c0,4.8,1.8,7.3,5.3,7.3c3.6,0,5.4-2.6,5.4-7.7V67.4h8.4v15.4
			c-0.1,5.2-1,9.1-2.8,11.7c-2.1,3.1-4.9,4.7-8.5,4.7c-4.5,0-8-1.4-10.3-4.1c-2.3,2.4-5.4,3.7-9.3,3.7h-25.1V91H671.8z"/>
		<path class="st1" d="M1.4,174.7c2.5,1.5,6.2,2.8,10.1,2.8c5.8,0,9.1-3,9.1-7.4c0-4.1-2.3-6.4-8.2-8.6c-7.1-2.5-11.5-6.2-11.5-12.3
			c0-6.8,5.6-11.8,14.1-11.8c4.5,0,7.7,1,9.6,2.1l-1.5,4.6c-1.4-0.8-4.3-2.1-8.3-2.1c-6,0-8.2,3.6-8.2,6.5c0,4.1,2.6,6.1,8.7,8.4
			c7.4,2.8,11.1,6.4,11.1,12.8c0,6.7-5,12.5-15.3,12.5c-4.2,0-8.8-1.2-11.1-2.8L1.4,174.7z"/>
		<path class="st1" d="M41.2,167.8l-4.5,13.7h-5.8L45.6,138h6.8l14.9,43.5h-6l-4.7-13.7H41.2z M55.5,163.5l-4.3-12.5
			c-1-2.8-1.6-5.4-2.3-8h-0.1c-0.6,2.6-1.4,5.2-2.2,7.9l-4.3,12.6H55.5z"/>
		<path class="st1" d="M73.7,138.6c2.8-0.6,6.9-0.9,10.8-0.9c6,0,9.9,1.1,12.6,3.6c2.2,1.9,3.4,4.9,3.4,8.3c0,5.8-3.6,9.6-8.2,11.1
			v0.2c3.4,1.2,5.4,4.3,6.4,8.8c1.4,6.1,2.5,10.3,3.4,11.9h-5.8c-0.7-1.2-1.7-5-2.9-10.4c-1.3-6-3.6-8.3-8.7-8.5h-5.3v18.9h-5.6
			V138.6z M79.3,158.4h5.8c6,0,9.8-3.3,9.8-8.3c0-5.6-4.1-8.1-10-8.1c-2.7,0-4.7,0.3-5.6,0.5V158.4z"/>
		<path class="st1" d="M117.5,181.5v-18.5l-13.8-25h6.4l6.2,12c1.7,3.3,3,5.9,4.3,9h0.1c1.2-2.8,2.7-5.7,4.4-9l6.3-12h6.4l-14.6,25
			v18.5H117.5z"/>
		<polygon class="st1" points="175.1,161.1 158.2,161.1 158.2,176.8 177.1,176.8 177.1,181.5 152.6,181.5 152.6,138 176.1,138 
			176.1,142.7 158.2,142.7 158.2,156.5 175.1,156.5 		"/>
		<path class="st1" d="M194.6,181.5L180.3,138h6.1l6.8,21.4c1.9,5.9,3.5,11.2,4.7,16.3h0.1c1.2-5,3-10.5,5-16.2l7.4-21.5h6
			l-15.6,43.5H194.6z"/>
		<polygon class="st1" points="243.7,161.1 226.7,161.1 226.7,176.8 245.6,176.8 245.6,181.5 221.1,181.5 221.1,138 244.6,138 
			244.6,142.7 226.7,142.7 226.7,156.5 243.7,156.5 		"/>
		<path class="st1" d="M252.9,181.5V138h6.1l14,22c3.2,5.1,5.8,9.7,7.8,14.1l0.1-0.1c-0.5-5.8-0.6-11.1-0.6-17.9V138h5.3v43.5H280
			l-13.8-22.1c-3-4.8-6-9.8-8.2-14.5l-0.2,0.1c0.3,5.5,0.5,10.7,0.5,18v18.6H252.9z"/>
		<polygon class="st1" points="303.8,142.8 290.6,142.8 290.6,138 322.8,138 322.8,142.8 309.5,142.8 309.5,181.5 303.8,181.5 		"/>
		<path class="st1" d="M326.6,174.7c2.5,1.5,6.2,2.8,10.1,2.8c5.8,0,9.1-3,9.1-7.4c0-4.1-2.3-6.4-8.2-8.6
			c-7.1-2.5-11.5-6.2-11.5-12.3c0-6.8,5.6-11.8,14.1-11.8c4.5,0,7.7,1,9.6,2.1l-1.5,4.6c-1.4-0.8-4.3-2.1-8.3-2.1
			c-6,0-8.2,3.6-8.2,6.5c0,4.1,2.6,6.1,8.7,8.4c7.4,2.8,11.1,6.4,11.1,12.8c0,6.7-5,12.5-15.3,12.5c-4.2,0-8.8-1.2-11.1-2.8
			L326.6,174.7z"/>
		<path class="st1" d="M388.9,177.6c-3.2,2.6-6.6,4.3-10.5,4.3c-8.3,0-12.1-5-12.1-10.8c0-5.2,2.2-8.8,7.8-12.6
			c-1.9-2.2-4.3-5.4-4.3-9c0-5.6,3.8-10.2,11.4-10.2c3.3,0,7.1,1.2,10.5,4.3l-3.9,4.5c-3.2-2.4-4.9-2.8-7.3-2.8
			c-3.1,0-4.4,1.9-4.4,4.1c0,1.6,0.6,2.5,1.9,4.3c3.9,5.2,7.6,9.9,10.9,14.3c1.1-2,1.7-4,2.3-6.4l6,0.9c-0.8,3.9-2.1,7.5-4.2,10.7
			c2,2.6,4.7,6.1,6.7,8.5h-7.6L388.9,177.6z M382.1,168.8l-4.5-5.8c-3.2,2.3-5,4.8-5,7.8c0,2.9,2,5.1,5.9,5.1c2.5,0,5.1-1.6,6.7-3
			L382.1,168.8z"/>
		<polygon class="st1" points="439.2,161.1 422.3,161.1 422.3,176.8 441.2,176.8 441.2,181.5 416.6,181.5 416.6,138 440.2,138 
			440.2,142.7 422.3,142.7 422.3,156.5 439.2,156.5 		"/>
		<path class="st1" d="M472.4,181.5l-5.6-9.6c-2.3-3.7-3.7-6.1-5-8.6h-0.1c-1.2,2.5-2.5,4.9-4.7,8.7l-5.2,9.6h-6.5l13.3-22
			L445.7,138h6.5l5.8,10.2c1.6,2.8,2.8,5,4,7.4h0.2c1.2-2.6,2.3-4.6,4-7.4l5.9-10.2h6.5l-13.3,21.2l13.6,22.3H472.4z"/>
		<polygon class="st1" points="491.1,138 491.1,156.2 512.2,156.2 512.2,138 517.9,138 517.9,181.5 512.2,181.5 512.2,161.1 
			491.1,161.1 491.1,181.5 485.4,181.5 485.4,138 		"/>
		<rect x="527.6" y="138" class="st1" width="5.6" height="43.5"/>
		<path class="st1" d="M543.1,138.6c2.5-0.5,6.3-0.9,10.3-0.9c5.6,0,9.3,1,12,3.2c2.3,1.7,3.6,4.3,3.6,7.7c0,4.2-2.8,7.9-7.4,9.6
			v0.1c4.1,1,9,4.4,9,10.9c0,3.8-1.5,6.6-3.7,8.7c-3,2.8-8,4.1-15.1,4.1c-3.9,0-6.9-0.3-8.7-0.5V138.6z M548.7,156.4h5.1
			c5.9,0,9.4-3.1,9.4-7.3c0-5.1-3.9-7.1-9.6-7.1c-2.6,0-4.1,0.2-5,0.4V156.4z M548.7,177.3c1.1,0.2,2.7,0.3,4.7,0.3
			c5.8,0,11.2-2.1,11.2-8.5c0-5.9-5.1-8.4-11.3-8.4h-4.7V177.3z"/>
		<rect x="578.2" y="138" class="st1" width="5.6" height="43.5"/>
		<polygon class="st1" points="602,142.8 588.7,142.8 588.7,138 621,138 621,142.8 607.6,142.8 607.6,181.5 602,181.5 		"/>
		<rect x="625.8" y="138" class="st1" width="5.6" height="43.5"/>
		<path class="st1" d="M678.6,159.3c0,15-9.1,22.9-20.3,22.9c-11.5,0-19.6-8.9-19.6-22.1c0-13.8,8.6-22.9,20.3-22.9
			C670.9,137.3,678.6,146.4,678.6,159.3 M644.7,160c0,9.3,5.1,17.6,13.9,17.6c8.9,0,14-8.2,14-18.1c0-8.7-4.5-17.7-13.9-17.7
			C649.4,141.9,644.7,150.5,644.7,160"/>
		<path class="st1" d="M685.9,181.5V138h6.1l14,22c3.2,5.1,5.8,9.7,7.8,14.1l0.1-0.1c-0.5-5.8-0.6-11.1-0.6-17.9V138h5.3v43.5h-5.7
			l-13.8-22.1c-3-4.8-6-9.8-8.2-14.5l-0.2,0.1c0.3,5.5,0.5,10.7,0.5,18v18.6H685.9z"/>
	</g>
</g>
</svg>
